<svg width="30" height="27" viewBox="0 0 30 27" fill="none" xmlns="http://www.w3.org/2000/svg">
<path d="M19.0861 14C19.0861 14.3487 18.7619 14.747 18.2143 14.747C17.6667 14.747 17.3425 14.3487 17.3425 14C17.3425 13.6513 17.6667 13.253 18.2143 13.253C18.7619 13.253 19.0861 13.6513 19.0861 14Z" stroke="#00E04C" stroke-opacity="0.7" stroke-width="2"/>
<path d="M19.2733 6L19.3432 4.93455C19.3462 4.8898 19.3509 4.85207 19.3544 4.82673L19.3571 4.80773V3.145C19.3571 2.03024 18.3647 1.00567 16.9989 1.00002M19.2733 6L16.9886 1C16.992 1 16.9954 1.00001 16.9989 1.00002M19.2733 6H19.0606L19.167 5.18875C19.183 5.13253 19.2143 5.00772 19.2143 4.856V3.145C19.2143 1.90208 18.1566 1.00531 16.9989 1.00002M19.2733 6L16.9989 1.00002M19.1538 5.23334L19.154 5.23257C19.1535 5.23455 19.1533 5.23507 19.1538 5.23334ZM10.7267 6L10.6568 4.93453C10.6538 4.88978 10.6491 4.85201 10.6456 4.82654C10.6446 4.81961 10.6437 4.81312 10.6429 4.80737V3.145C10.6429 2.02695 11.641 1 13.0114 1H13.0125C11.8502 1 10.7857 1.89785 10.7857 3.145V4.855C10.7857 5.0187 10.8216 5.15016 10.8373 5.20311L10.9593 6H10.7267ZM3.25335 6.00054C2.14664 6.02521 1.14286 6.8864 1.14286 8.082V23.918C1.14286 25.1311 2.17632 26 3.30214 26C1.96753 26 1 25.0014 1 23.919V8.082C1 7.01119 1.94495 6.02367 3.25486 6.00042L3.25335 6.00054ZM7.73929 16.157V16.1349L7.73831 16.1129L7.4167 8.8299C7.41072 8.02785 7.10644 7.38494 6.61624 6.92262C6.15173 6.48453 5.57901 6.26223 5.09961 6.14364C4.76506 6.06088 4.43858 6.01951 4.15785 6H6.18049L7.16026 7.53743C7.41829 7.94232 7.55857 8.37154 7.55857 8.813V8.83507L7.55954 8.85712L7.8812 16.14C7.89647 17.7331 9.26906 19 10.8129 19C9.10127 19 7.73929 17.6337 7.73929 16.157ZM28.8571 20V19V18V8.082C28.8571 6.86885 27.8237 6 26.6979 6C28.0322 6 29 6.99835 29 8.082V23.918C29 25.0016 28.0322 26 26.6979 26C27.8237 26 28.8571 25.1311 28.8571 23.918V20Z" stroke="#00E04C" stroke-opacity="0.7" stroke-width="2"/>
</svg>
