<svg width="373" height="483" viewBox="0 0 373 483" fill="none" xmlns="http://www.w3.org/2000/svg">
<g clip-path="url(#clip0)">
<path d="M286.918 248C286.918 248 295.828 234.26 311.229 230.807C326.631 227.354 371.037 228.059 371.037 228.059L373 241.671L286.918 248Z" fill="#EFF442"/>
<path opacity="0.27" d="M363.508 402.678C363.282 407.395 362.877 412.075 362.295 416.679C362.306 416.735 362.306 416.796 362.295 416.852H10.0418L9.97526 416.679C8.29092 412.219 6.77173 407.541 5.42871 402.678H363.508Z" fill="#4F4F4F"/>
<path d="M278.759 342.525H267.392C264.067 342.525 261.372 347.658 261.372 353.99V395.533C261.372 401.865 264.067 406.998 267.392 406.998H278.759C282.084 406.998 284.78 401.865 284.78 395.533V353.99C284.78 347.658 282.084 342.525 278.759 342.525Z" fill="#3F3D56"/>
<path opacity="0.27" d="M362.116 417C356.449 446.437 334.139 462.382 291.551 460.906C219.278 458.394 125.2 430.933 69.7503 444.642C41.45 451.672 21.3991 437.348 9.87354 417H362.116Z" fill="black"/>
<path d="M60.515 416.852L23.5576 434.023L49.2675 433.515L84.6602 416.96L60.515 416.852Z" fill="white"/>
<path d="M118.184 416.852L81.2266 434.023L106.936 433.515L142.329 416.96L118.184 416.852Z" fill="white"/>
<path d="M175.853 416.852L138.896 434.023L164.605 433.515L199.998 416.96L175.853 416.852Z" fill="white"/>
<path d="M233.522 416.852L196.564 434.023L222.27 433.515L257.662 416.96L233.522 416.852Z" fill="white"/>
<path d="M291.191 416.852L254.229 434.023L279.938 433.515L315.331 416.96L291.191 416.852Z" fill="white"/>
<path d="M348.855 416.852L311.897 434.023L337.607 433.515L373 416.96L348.855 416.852Z" fill="white"/>
<path opacity="0.05" d="M289.469 416.852C280.542 422.883 271.335 427.583 262.171 432.248C252.05 437.41 241.83 442.59 231.358 443.387C225.04 443.86 218.718 442.724 212.558 440.009C210.537 439.103 208.506 438.062 206.433 438.089C202.704 438.161 199.299 441.712 195.813 444.338C186.301 451.447 175.801 451.329 165.59 451.121L121.993 450.216C114.17 450.053 105.51 449.31 99.9027 438.877C99.1323 437.455 98.3904 435.635 98.476 433.579C98.6234 429.911 101.058 428.589 102.98 428.199C114.165 425.926 125.394 424.051 136.546 421.244C140.969 420.13 145.34 418.527 149.696 416.852H289.469Z" fill="black"/>
<path d="M134.789 319.834L122.029 371.628L95.4774 412.768L87.1548 406.483L105.607 366.15L102.511 325.461L128.673 312.95L134.789 319.834Z" fill="black"/>
<path d="M156.823 407.756L147.511 414.046C147.511 414.046 137.999 377.934 131.379 367.073C115.994 341.828 103.424 325.058 103.424 325.058L125.506 313.104L125.781 312.95L130.152 323.997L147.748 358.03L149.974 368.961L156.823 407.756Z" fill="black"/>
<path d="M82.0231 368.192L79.707 389.952L117.706 395.022L125.667 393.935L122.281 354.763L120.303 352.265L82.0231 368.192Z" fill="#3F3D56"/>
<path d="M118.072 394.163L120.25 360.093L122.143 355.871L124.583 393.028L118.072 394.163Z" fill="url(#paint0_linear)"/>
<path d="M95.5062 341.016C95.5062 341.016 92.2818 343.138 92.1201 349.184H94.5551C94.5551 349.184 94.7168 344.745 96.5858 344.294L95.5062 341.016Z" fill="#3F3D56"/>
<path d="M136.919 225.58L140.439 230.125L136.197 234.505L133.115 231.286L130.922 230.713C130.214 230.53 129.571 230.115 129.075 229.522C128.58 228.929 128.254 228.184 128.14 227.383C128.083 226.996 128.012 226.614 127.921 226.237C127.446 224.227 129.348 212.284 130.537 212.697C133.257 213.668 134.175 220.732 134.989 221.273C135.802 221.814 136.919 225.58 136.919 225.58Z" fill="url(#paint1_linear)"/>
<path d="M134.066 227.107C133.282 227.637 130.652 229.096 130.652 229.096C130.211 229.234 129.741 229.192 129.325 228.979C129.176 228.875 129.055 228.726 128.978 228.55C128.863 228.295 127.836 224.837 127.836 224.837L126.519 220.833L123.913 212.878L128.426 210.756C128.613 210.669 128.813 210.624 129.015 210.623C129.218 210.622 129.418 210.666 129.606 210.752C129.793 210.838 129.963 210.964 130.107 211.123C130.25 211.282 130.364 211.471 130.442 211.679L130.471 211.759L134.718 225.113C134.806 225.48 134.79 225.868 134.674 226.224C134.557 226.581 134.345 226.889 134.066 227.107Z" fill="#EFF442"/>
<path d="M133.505 226.571C132.977 226.847 129.348 228.979 129.348 228.979C129.199 228.875 129.079 228.726 129.001 228.55C128.887 228.295 127.86 224.837 127.86 224.837L126.542 220.833L125.425 215.476L129.31 211.032L133.914 225.558C133.936 225.753 133.91 225.951 133.838 226.129C133.766 226.308 133.65 226.461 133.505 226.571Z" fill="url(#paint2_linear)"/>
<path d="M135.332 325.18L128.997 312.95L121.701 327.079C121.701 327.079 109.56 326.951 102.165 325.291L101.213 325.063C98.3599 324.321 96.4147 323.308 96.6192 321.918C96.8095 320.645 97.5704 316.774 98.1078 311.598C98.7353 306 98.8596 300.347 98.4788 294.722C98.1363 290.272 96.3814 285.759 95.0593 281.67C94.3775 279.757 93.8848 277.767 93.5898 275.735C93.0857 271.185 92.6053 267.69 92.2106 266.189C91.6399 263.998 91.4782 260.885 91.5591 257.645C91.7065 251.222 92.7861 244.264 93.4328 242.795C94.0796 241.326 99.8437 238.398 103.377 236.738C104.961 235.98 106.088 235.487 106.088 235.487H120.222L132.407 243.097C132.407 243.097 134.785 259.676 135.117 263.123C135.431 266.486 131.522 280.715 131.189 284.497C130.371 293.926 135.332 325.18 135.332 325.18Z" fill="black"/>
<path d="M110.972 289.758L103.424 325.058H101.18C98.3263 324.315 96.3811 323.303 96.5856 321.913C96.9518 319.468 99.4391 307.201 98.4499 294.716C97.922 287.944 94.1697 281.102 93.5752 275.74L102.678 264.396L110.972 289.758Z" fill="url(#paint3_linear)"/>
<path d="M106.088 235.497L123.066 266.295C123.066 266.295 122.334 243.49 121.278 239.486C120.222 235.481 106.088 235.497 106.088 235.497Z" fill="white"/>
<path d="M109.811 224.821C109.811 224.821 107.586 234.824 106.073 235.508C107.865 238.318 110.573 240.233 113.616 240.843C115.347 241.214 122.333 241.904 121.278 239.486C120.682 238.252 120.323 236.894 120.222 235.497V231.514C120.222 231.514 125.929 233.503 126.48 230.698C127.032 227.892 129.89 222.965 129.334 211.011C128.777 199.057 112.332 202.191 110.054 204.116C107.776 206.041 106.116 217.593 109.811 224.821Z" fill="url(#paint4_linear)"/>
<path d="M115.314 197.328C116.632 197.056 117.974 196.952 119.314 197.02C121.432 197.009 123.533 197.444 125.506 198.304C127.451 199.242 129.187 200.924 129.91 203.151C130.233 204.298 130.418 205.487 130.461 206.688C130.534 207.218 130.513 207.759 130.399 208.28C130.339 208.537 130.213 208.77 130.038 208.951C129.863 209.133 129.645 209.255 129.41 209.303C128.668 209.388 127.984 208.476 127.284 208.725C126.833 208.879 126.604 209.43 126.229 209.749C125.444 210.412 124.326 209.892 123.461 209.393C122.595 208.895 121.406 208.47 120.75 209.266C120.208 209.886 120.174 211.106 119.418 211.303C119.227 211.325 119.033 211.305 118.848 211.244C117.449 210.942 115.809 210.618 114.772 211.7C114.244 212.365 113.894 213.18 113.759 214.055C113.524 215.024 113.293 215.991 113.065 216.956L111.685 215.328C111.573 215.175 111.429 215.053 111.267 214.973C111.082 214.942 110.894 214.972 110.725 215.06C110.556 215.147 110.413 215.289 110.316 215.466C109.878 216.168 109.709 217.035 109.844 217.876C109.98 218.717 110.409 219.464 111.039 219.953C111.154 220.041 111.275 220.121 111.4 220.191C111.599 220.256 111.78 220.374 111.928 220.536C112.013 220.677 112.065 220.839 112.08 221.008C112.342 222.71 111.795 224.45 110.986 225.919C110.74 226.477 110.319 226.915 109.802 227.149C109.269 227.319 108.58 226.9 108.623 226.29L107.614 226.693C107.139 225.101 106.82 223.457 106.663 221.788C106.112 217.396 105.56 213.005 105.341 208.582C105.212 207.223 105.299 205.85 105.598 204.525C105.753 203.865 106.045 203.254 106.449 202.742C106.854 202.23 107.361 201.831 107.928 201.576C108.665 201.305 109.174 201.268 109.74 200.711C110.208 200.174 110.709 199.672 111.238 199.21C112.475 198.294 113.859 197.655 115.314 197.328Z" fill="#091240"/>
<path d="M155.21 267.812C153.094 267.812 135.117 263.134 135.117 263.134L133.476 251.01L132.406 243.108C132.406 243.108 138.988 247.351 140.372 248.995C141.756 250.639 144.025 250.055 144.025 250.055L134.603 236.128L140.415 230.125L142.398 228.067L150.764 239.141C150.764 239.141 156.29 247.658 158.482 253.36C158.848 254.341 159.073 255.381 159.148 256.441C159.581 261.744 156.965 267.812 155.21 267.812Z" fill="#3F3D56"/>
<path d="M127.884 226.237C127.884 226.237 128.835 223.697 129.31 223.586C129.786 223.474 130.043 226.099 129.639 226.731C129.234 227.362 129.577 229.425 129.738 229.61C129.9 229.796 127.603 228.502 127.884 226.237Z" fill="url(#paint5_linear)"/>
<path d="M102.145 325.291L102.678 327.079L95.0068 330.404L93.9034 330.887C93.9034 330.887 80.5016 300.72 79.7692 296.917C79.0368 293.115 84.6439 259.14 93.4183 242.821C94.2105 243.303 94.9774 243.834 95.7154 244.412C98.7876 246.751 103.99 251.636 105.251 258.61L95.0258 281.68L91.5255 289.588L98.0742 311.598L102.145 325.291Z" fill="black"/>
<path d="M101.608 327.545C101.608 327.545 107.225 333.331 107.634 334.599C108.043 335.867 107.634 339.218 107.634 339.218H106.578L106.335 342.841C106.335 342.841 105.86 345.381 104.709 345.291C103.659 345.313 102.616 345.491 101.608 345.821C101.608 345.821 97.6417 345.461 96.5859 344.283C95.5301 343.106 94.9594 337.585 95.0403 336.047C95.1211 334.509 95.0403 329.98 95.0403 329.98L101.608 327.545Z" fill="url(#paint6_linear)"/>
<path d="M107.633 339.218C107.633 339.218 109.636 339.038 110.72 344.108C111.804 349.178 111.585 351.003 111.585 351.003H108.661C108.661 351.003 107.961 342.841 106.392 341.987L106.578 339.213L107.633 339.218Z" fill="#3F3D56"/>
<path d="M122.281 354.758L120.555 368.839C120.444 369.741 120.026 370.561 119.386 371.128C118.746 371.694 117.935 371.963 117.121 371.878L82.0234 368.165C81.6105 368.126 81.2085 367.997 80.8404 367.785C80.4723 367.573 80.1452 367.282 79.878 366.929C79.6108 366.576 79.4086 366.167 79.2831 365.727C79.1575 365.286 79.111 364.823 79.1462 364.362C79.1462 364.293 79.1462 364.219 79.17 364.15L80.825 351.295C80.9382 350.417 81.3436 349.619 81.9605 349.06C82.5774 348.501 83.3606 348.221 84.154 348.277L119.347 350.759C120.184 350.818 120.966 351.244 121.522 351.945C122.077 352.646 122.361 353.564 122.31 354.498C122.3 354.583 122.291 354.673 122.281 354.758Z" fill="#3F3D56"/>
<path d="M151.092 419.206L148.809 413.144L155.943 408.318L158.967 416.22C158.967 416.22 168.997 416.581 173.544 421.471L175.494 425.639H151.187L151.092 419.206Z" fill="#3F3D56"/>
<path d="M84.6055 412.683L88.2722 407.432L93.827 411.458L91.4872 416.979L95.0873 424.674C95.0873 424.674 97.7458 424.552 100.694 427.326C103.643 430.1 102.649 430.826 102.649 430.826H88.082L79.707 416.979C79.707 416.979 82.7032 412.895 84.6055 412.683Z" fill="#3F3D56"/>
<path d="M107.6 232.777C107.6 232.777 103.491 232.777 103.249 235.487L104.547 245.563L109.502 247.828L108.527 253.46L123.066 266.321L106.088 235.524C106.718 234.702 107.228 233.775 107.6 232.777Z" fill="#333333"/>
<path d="M122.78 236.314L120.222 233.869C120.146 235.107 120.269 236.349 120.583 237.539C121.087 239.024 123.475 261.766 123.066 266.295L125.981 250.077L123.465 245.303L124.44 241.861L122.78 236.314Z" fill="#333333"/>
<path d="M117.216 241.236L116.08 244.588L118.272 247.186L117.754 256.68L123.066 266.3L122.685 256.749L119.575 246.826L120.203 243.925L118.847 241.199L117.216 241.236Z" fill="#333333"/>
<path d="M107.6 232.777C107.6 232.777 103.491 232.777 103.249 235.487L104.547 245.563L109.502 247.828L108.527 253.46L123.066 266.321L106.088 235.524C106.718 234.702 107.228 233.775 107.6 232.777Z" fill="url(#paint7_linear)"/>
<path d="M122.78 236.314L120.222 233.869C120.146 235.107 120.269 236.349 120.583 237.539C121.087 239.024 123.475 261.766 123.066 266.295L125.981 250.077L123.465 245.303L124.44 241.861L122.78 236.314Z" fill="url(#paint8_linear)"/>
<path d="M117.216 241.236L116.08 244.588L118.272 247.186L117.754 256.68L123.066 266.3L122.685 256.749L119.575 246.826L120.203 243.925L118.847 241.199L117.216 241.236Z" fill="url(#paint9_linear)"/>
<path d="M124.45 268.841L128.887 276.509L128.997 312.955L135.331 325.185C135.331 325.185 129.149 294.552 131.189 284.512C133.229 274.473 132.407 272.845 132.407 272.845L124.45 268.841Z" fill="url(#paint10_linear)"/>
<path opacity="0.24" d="M82.5228 294.722C83.8401 300.439 96.5857 329.407 96.5857 329.407L95.0068 330.404L93.9034 330.887C93.9034 330.887 80.5016 300.72 79.7692 296.917C79.0368 293.115 84.6439 259.14 93.4183 242.821C94.0889 241.326 99.8577 238.404 103.377 236.738L103.677 239.682L95.7154 244.391C95.7154 244.391 93.8654 250.077 91.5446 257.65C87.3642 271.291 81.6667 291.046 82.5228 294.722Z" fill="#333333"/>
<path d="M155.211 267.812C153.094 267.812 135.117 263.134 135.117 263.134L133.477 251.01V250.809L151.824 259.941C151.824 259.941 158.854 261.744 159.148 256.441C159.581 261.744 156.965 267.812 155.211 267.812Z" fill="url(#paint11_linear)"/>
<path d="M144.025 250.077C144.025 250.077 148.938 259.623 151.848 259.936C153.169 260.11 154.5 260.165 155.829 260.1L156.827 253.736L140.415 230.125L134.604 236.139L144.025 250.077Z" fill="url(#paint12_linear)"/>
<path opacity="0.24" d="M156.823 407.756L154.407 409.32C154.407 409.32 145.081 361.18 143.944 358.407C142.807 355.633 124.555 321.478 124.555 321.478L125.506 313.104L125.782 312.95L130.152 323.997L147.749 358.03L149.974 368.961L156.823 407.756Z" fill="white"/>
<path opacity="0.24" d="M122.281 354.758L120.555 368.839C120.444 369.741 120.025 370.561 119.385 371.128C118.746 371.694 117.934 371.963 117.121 371.878L82.0231 368.165C81.5336 368.113 81.0616 367.934 80.6442 367.645C80.2267 367.355 79.875 366.961 79.6167 366.494H81.1813L112.936 369.677C112.936 369.677 117.449 370.154 118.505 366.701C119.561 363.249 120.954 351.374 120.954 351.374C121.434 351.747 121.812 352.26 122.046 352.857C122.28 353.454 122.361 354.112 122.281 354.758Z" fill="white"/>
<path opacity="0.24" d="M117.121 371.878L114.871 391.002L79.707 389.952L117.706 395.022L119.556 370.965L117.121 371.878Z" fill="white"/>
<path d="M399.715 387L273.478 384.499C273.478 384.499 269.062 381.935 267.957 376.816C266.853 371.696 266.853 329.704 267.957 321.675C269.062 313.645 278.201 301.333 278.201 301.333C278.201 301.333 287.027 270.307 289.222 256.868C291.417 243.428 305.346 241 305.346 241H369.193C369.742 244.574 370.375 248.275 371.114 252.121C372.009 256.804 373.074 261.696 374.269 266.834C376.405 275.872 379.071 285.657 382.37 296.323C382.409 296.441 382.448 296.568 382.481 296.687C384.907 304.525 387.085 312.151 389.014 319.565C389.72 322.287 390.39 324.978 391.026 327.64C392.686 334.532 394.108 341.222 395.292 347.708C396.893 356.296 398.102 365.015 398.912 373.815C399.325 378.355 399.593 382.75 399.715 387Z" fill="#EFF442"/>
<path d="M312.425 107.781C310.356 107.066 308.221 106.957 306.243 105.734C307.251 108.596 308.261 111.455 309.272 114.311C310.167 117.03 311.194 119.583 312.34 121.936C314.018 125.188 316.23 127.615 318.622 127.932C320.329 128.171 322.022 127.203 323.378 125.215C325.413 122.09 324.243 120.216 322.626 117.426C319.765 112.463 316.231 109.122 312.425 107.781Z" fill="white"/>
<path d="M290.701 85.5837C290.369 86.7921 289.997 87.9597 289.588 89.0795L291.39 88.3188C291.954 88.1125 292.506 87.8094 293.041 87.4131C293.808 86.843 294.44 85.7616 294.819 84.3701C295.072 83.3682 295.123 82.2238 294.962 81.1551C294.696 79.534 294.239 80.0049 293.568 80.6298C292.391 81.7461 291.399 83.4605 290.701 85.5837Z" fill="white"/>
<path d="M65.9462 132.098C64.9535 131.89 63.9686 131.563 62.9976 131.12L64.4243 135.195C64.8502 136.485 65.3373 137.697 65.8796 138.818C66.6687 140.421 67.7333 141.433 68.8805 141.67C69.6951 141.78 70.5024 141.316 71.149 140.366C72.1002 138.881 71.558 137.994 70.7923 136.662C69.432 134.31 67.7534 132.729 65.9462 132.098Z" fill="white"/>
<path d="M53.0865 210.943C52.7542 212.149 52.3826 213.313 51.9736 214.43L53.7761 213.669C54.3394 213.463 54.8918 213.16 55.4263 212.764C56.1944 212.193 56.828 211.112 57.2098 209.721C57.4614 208.718 57.5105 207.573 57.3477 206.506C57.0814 204.885 56.6248 205.356 55.959 205.98C54.778 207.095 53.7834 208.813 53.0865 210.943Z" fill="white"/>
<path d="M384.873 297H287.96C286.629 296.983 285.358 296.305 284.422 295.112C283.485 293.918 282.96 292.307 282.96 290.628C282.961 290.055 283.024 289.485 283.146 288.934L288.86 263.123C289.818 258.773 291.88 254.939 294.729 252.208C297.578 249.476 301.058 247.998 304.636 248H371.518C371.818 249.577 372.147 251.181 372.49 252.813C373.468 257.454 374.632 262.303 375.939 267.395C378.274 276.353 381.188 286.05 384.795 296.621C384.806 296.752 384.832 296.88 384.873 297Z" fill="#3F3D56"/>
<path d="M373 373.537C372.099 374.494 371.058 375.001 369.995 375H281.695C280.202 375.002 278.768 374 277.708 372.213C276.647 370.425 276.045 367.997 276.034 365.458V337.632C276.033 336.368 276.179 335.116 276.463 333.948C276.747 332.781 277.163 331.719 277.689 330.825C278.214 329.93 278.838 329.221 279.524 328.736C280.211 328.251 280.947 328.001 281.69 328H366.636C367.978 334.804 369.127 341.408 370.085 347.811C371.375 356.273 372.348 364.866 373 373.537Z" fill="url(#paint13_linear)"/>
<path d="M373 320H322.519C314.69 305.175 286.918 297 286.918 297H367.103C369.293 304.874 371.259 312.54 373 320Z" fill="url(#paint14_linear)"/>
<path d="M291.167 337.191H284.661C281.856 337.191 279.582 341.521 279.582 346.863V359.252C279.582 364.594 281.856 368.925 284.661 368.925H291.167C293.972 368.925 296.246 364.594 296.246 359.252V346.863C296.246 341.521 293.972 337.191 291.167 337.191Z" fill="white"/>
<path d="M357.035 346.084H308.449C308.038 346.084 307.644 345.773 307.353 345.219C307.062 344.666 306.899 343.915 306.899 343.132C306.899 342.349 307.062 341.598 307.353 341.044C307.644 340.49 308.038 340.179 308.449 340.179H357.035C357.446 340.179 357.84 340.49 358.131 341.044C358.422 341.598 358.585 342.349 358.585 343.132C358.585 343.915 358.422 344.666 358.131 345.219C357.84 345.773 357.446 346.084 357.035 346.084Z" fill="#EFF442"/>
<path d="M357.035 348.52H308.449C307.593 348.52 306.899 349.842 306.899 351.473V351.482C306.899 353.112 307.593 354.434 308.449 354.434H357.035C357.891 354.434 358.585 353.112 358.585 351.482V351.473C358.585 349.842 357.891 348.52 357.035 348.52Z" fill="#EFF442"/>
<path d="M357.035 362.757H308.449C308.038 362.757 307.644 362.446 307.353 361.892C307.062 361.339 306.899 360.588 306.899 359.805C306.899 359.022 307.062 358.271 307.353 357.717C307.644 357.163 308.038 356.852 308.449 356.852H357.035C357.446 356.852 357.84 357.163 358.131 357.717C358.422 358.271 358.585 359.022 358.585 359.805C358.585 360.588 358.422 361.339 358.131 361.892C357.84 362.446 357.446 362.757 357.035 362.757Z" fill="#EFF442"/>
<path d="M321.549 228L326.962 217.253C327.872 215.424 329.553 213.84 331.773 212.721C333.993 211.601 336.643 211 339.361 211H370.59L373 227.788L321.549 228Z" fill="white"/>
<path opacity="0.16" d="M334.839 211.451L338.858 228.178L340.285 227.97L339.395 211.451H334.839Z" fill="#222A72"/>
<path d="M270.315 103.467H86L166.137 95.4276C192.182 82.0287 246.274 47.1913 270.315 82.0287C294.356 116.866 270.315 103.467 270.315 103.467Z" fill="white"/>
<path d="M343.44 217.87H341.04V217H346.83V217.87H344.43V224H343.44V217.87ZM349.426 218.65C350.159 218.65 350.719 218.83 351.106 219.19C351.499 219.55 351.696 220.087 351.696 220.8V224H350.786V223.3C350.626 223.547 350.396 223.737 350.096 223.87C349.803 223.997 349.453 224.06 349.046 224.06C348.453 224.06 347.976 223.917 347.616 223.63C347.263 223.343 347.086 222.967 347.086 222.5C347.086 222.033 347.256 221.66 347.596 221.38C347.936 221.093 348.476 220.95 349.216 220.95H350.736V220.76C350.736 220.347 350.616 220.03 350.376 219.81C350.136 219.59 349.783 219.48 349.316 219.48C349.003 219.48 348.696 219.533 348.396 219.64C348.096 219.74 347.843 219.877 347.636 220.05L347.236 219.33C347.509 219.11 347.836 218.943 348.216 218.83C348.596 218.71 348.999 218.65 349.426 218.65ZM349.206 223.32C349.573 223.32 349.889 223.24 350.156 223.08C350.423 222.913 350.616 222.68 350.736 222.38V221.64H349.256C348.443 221.64 348.036 221.913 348.036 222.46C348.036 222.727 348.139 222.937 348.346 223.09C348.553 223.243 348.839 223.32 349.206 223.32ZM356.853 224L355.323 221.97L353.773 224H352.703L354.793 221.29L352.803 218.7H353.873L355.333 220.61L356.783 218.7H357.833L355.833 221.29L357.943 224H356.853ZM358.99 218.7H359.95V224H358.99V218.7ZM359.47 217.68C359.283 217.68 359.127 217.62 359 217.5C358.88 217.38 358.82 217.233 358.82 217.06C358.82 216.887 358.88 216.74 359 216.62C359.127 216.493 359.283 216.43 359.47 216.43C359.657 216.43 359.81 216.49 359.93 216.61C360.057 216.723 360.12 216.867 360.12 217.04C360.12 217.22 360.057 217.373 359.93 217.5C359.81 217.62 359.657 217.68 359.47 217.68Z" fill="#828282"/>
</g>
<defs>
<linearGradient id="paint0_linear" x1="123.988" y1="370.854" x2="116.319" y2="393.231" gradientUnits="userSpaceOnUse">
<stop stop-opacity="0"/>
<stop offset="0.91" stop-opacity="0.8"/>
<stop offset="1"/>
</linearGradient>
<linearGradient id="paint1_linear" x1="127.836" y1="223.596" x2="140.415" y2="223.596" gradientUnits="userSpaceOnUse">
<stop stop-color="#ECC4D7"/>
<stop offset="0.42" stop-color="#EFD4D1"/>
<stop offset="1" stop-color="#F2EAC9"/>
</linearGradient>
<linearGradient id="paint2_linear" x1="3714.86" y1="2193.29" x2="3072.88" y2="1487.24" gradientUnits="userSpaceOnUse">
<stop stop-opacity="0"/>
<stop offset="0.91" stop-opacity="0.8"/>
<stop offset="1"/>
</linearGradient>
<linearGradient id="paint3_linear" x1="6604.32" y1="13927.9" x2="4748.89" y2="13976" gradientUnits="userSpaceOnUse">
<stop stop-opacity="0"/>
<stop offset="0.91" stop-opacity="0.8"/>
<stop offset="1"/>
</linearGradient>
<linearGradient id="paint4_linear" x1="9022.21" y1="16858.7" x2="10166.9" y2="16858.7" gradientUnits="userSpaceOnUse">
<stop stop-color="#ECC4D7"/>
<stop offset="0.42" stop-color="#EFD4D1"/>
<stop offset="1" stop-color="#F2EAC9"/>
</linearGradient>
<linearGradient id="paint5_linear" x1="978.356" y1="2765.19" x2="1013.58" y2="2742.51" gradientUnits="userSpaceOnUse">
<stop stop-color="#ECC4D7"/>
<stop offset="0.42" stop-color="#EFD4D1"/>
<stop offset="1" stop-color="#F2EAC9"/>
</linearGradient>
<linearGradient id="paint6_linear" x1="4682.5" y1="4178.29" x2="5026.1" y2="4178.29" gradientUnits="userSpaceOnUse">
<stop stop-color="#ECC4D7"/>
<stop offset="0.42" stop-color="#EFD4D1"/>
<stop offset="1" stop-color="#F2EAC9"/>
</linearGradient>
<linearGradient id="paint7_linear" x1="7587.5" y1="4024.02" x2="7672.65" y2="8228.75" gradientUnits="userSpaceOnUse">
<stop stop-opacity="0"/>
<stop offset="0.91" stop-opacity="0.8"/>
<stop offset="1"/>
</linearGradient>
<linearGradient id="paint8_linear" x1="118.676" y1="230.141" x2="132.818" y2="283.65" gradientUnits="userSpaceOnUse">
<stop stop-opacity="0"/>
<stop offset="0.87" stop-opacity="0.74"/>
<stop offset="0.91" stop-opacity="0.8"/>
<stop offset="1"/>
</linearGradient>
<linearGradient id="paint9_linear" x1="2837.17" y1="3232.56" x2="3320.62" y2="5261.12" gradientUnits="userSpaceOnUse">
<stop stop-opacity="0"/>
<stop offset="0.91" stop-opacity="0.8"/>
<stop offset="1"/>
</linearGradient>
<linearGradient id="paint10_linear" x1="4942.15" y1="-17995.8" x2="851.937" y2="-15214" gradientUnits="userSpaceOnUse">
<stop stop-opacity="0"/>
<stop offset="0.91" stop-opacity="0.8"/>
<stop offset="1"/>
</linearGradient>
<linearGradient id="paint11_linear" x1="11687.4" y1="2844.97" x2="11176" y2="4081.22" gradientUnits="userSpaceOnUse">
<stop stop-opacity="0"/>
<stop offset="0.91" stop-opacity="0.8"/>
<stop offset="1"/>
</linearGradient>
<linearGradient id="paint12_linear" x1="10001.6" y1="4700.09" x2="10612.9" y2="1805.99" gradientUnits="userSpaceOnUse">
<stop stop-opacity="0"/>
<stop offset="0.91" stop-opacity="0.8"/>
<stop offset="1"/>
</linearGradient>
<linearGradient id="paint13_linear" x1="60017.6" y1="16127.1" x2="65804.5" y2="26972" gradientUnits="userSpaceOnUse">
<stop stop-opacity="0"/>
<stop offset="0.91" stop-opacity="0.8"/>
<stop offset="1"/>
</linearGradient>
<linearGradient id="paint14_linear" x1="56910.7" y1="7722.78" x2="61966.3" y2="14756.6" gradientUnits="userSpaceOnUse">
<stop stop-opacity="0"/>
<stop offset="0.91" stop-opacity="0.8"/>
<stop offset="1"/>
</linearGradient>
<clipPath id="clip0">
<rect width="375" height="483" fill="white" transform="translate(-2)"/>
</clipPath>
</defs>
</svg>
