<svg width="3" height="27" viewBox="0 0 3 27" fill="none" xmlns="http://www.w3.org/2000/svg">
<path d="M1.22 2.07C0.993333 2.07 0.8 1.99333 0.64 1.84C0.48 1.68 0.4 1.48 0.4 1.24C0.4 0.993333 0.476667 0.793333 0.63 0.64C0.79 0.486667 0.986667 0.41 1.22 0.41C1.45333 0.41 1.64667 0.486667 1.8 0.64C1.96 0.793333 2.04 0.993333 2.04 1.24C2.04 1.48 1.96 1.68 1.8 1.84C1.64 1.99333 1.44667 2.07 1.22 2.07ZM1.22 14.07C0.993333 14.07 0.8 13.9933 0.64 13.84C0.48 13.68 0.4 13.48 0.4 13.24C0.4 12.9933 0.476667 12.7933 0.63 12.64C0.79 12.4867 0.986667 12.41 1.22 12.41C1.45333 12.41 1.64667 12.4867 1.8 12.64C1.96 12.7933 2.04 12.9933 2.04 13.24C2.04 13.48 1.96 13.68 1.8 13.84C1.64 13.9933 1.44667 14.07 1.22 14.07ZM1.22 26.07C0.993333 26.07 0.8 25.9933 0.64 25.84C0.48 25.68 0.4 25.48 0.4 25.24C0.4 24.9933 0.476667 24.7933 0.63 24.64C0.79 24.4867 0.986667 24.41 1.22 24.41C1.45333 24.41 1.64667 24.4867 1.8 24.64C1.96 24.7933 2.04 24.9933 2.04 25.24C2.04 25.48 1.96 25.68 1.8 25.84C1.64 25.9933 1.44667 26.07 1.22 26.07Z" fill="black"/>
</svg>
