<svg width="50" height="50" viewBox="0 0 50 50" fill="none" xmlns="http://www.w3.org/2000/svg">
<circle cx="25" cy="25" r="25" fill="white"/>
<path fill-rule="evenodd" clip-rule="evenodd" d="M16.2791 26C16.2791 25.0257 16.4444 24.0916 16.7395 23.2155L11.574 19.355C10.5672 21.3555 10 23.6095 10 26C10 28.3884 10.5665 30.6411 11.5719 32.6402L16.7347 28.7723C16.4423 27.9002 16.2791 26.9695 16.2791 26Z" fill="#FBBC05"/>
<path fill-rule="evenodd" clip-rule="evenodd" d="M25.3489 17.1364C27.5116 17.1364 29.4651 17.8864 31 19.1136L35.4651 14.75C32.7442 12.4318 29.2558 11 25.3489 11C19.2833 11 14.0703 14.3948 11.574 19.355L16.7396 23.2155C17.9298 19.6795 21.3226 17.1364 25.3489 17.1364Z" fill="#EA4335"/>
<path fill-rule="evenodd" clip-rule="evenodd" d="M25.3489 34.8636C21.3226 34.8636 17.9298 32.3205 16.7396 28.7845L11.574 32.6443C14.0703 37.6052 19.2833 41 25.3489 41C29.0926 41 32.6668 39.6991 35.3493 37.2616L30.4461 33.5518C29.0626 34.4048 27.3205 34.8636 25.3489 34.8636Z" fill="#34A853"/>
<path fill-rule="evenodd" clip-rule="evenodd" d="M40 26C40 25.1136 39.8605 24.1591 39.6512 23.2727H25.3489V29.0682H33.5814C33.1698 31.0441 32.0493 32.5632 30.4461 33.5518L35.3493 37.2616C38.1673 34.702 40 30.8893 40 26Z" fill="#4285F4"/>
</svg>
