<svg width="40" height="45" viewBox="0 0 40 45" fill="none" xmlns="http://www.w3.org/2000/svg">
<path d="M20 0C13.0345 0 7.36842 5.2658 7.36842 11.7391V13.6957H9.47368V11.7391C9.47368 6.34341 14.1941 1.95652 20 1.95652C25.8059 1.95652 30.5263 6.34341 30.5263 11.7391V13.6957H32.6316V11.7391C32.6316 5.2658 26.9655 0 20 0ZM3.15789 15.6522C1.41859 15.6522 0 16.9705 0 18.587V42.0652C0 43.6816 1.41859 45 3.15789 45H36.8421C38.5814 45 40 43.6816 40 42.0652V18.587C40 16.9705 38.5814 15.6522 36.8421 15.6522H3.15789ZM20 22.5C22.903 22.5 25.2632 24.6934 25.2632 27.3913C25.2632 30.2993 23.1867 31.2509 21.9408 31.824C21.6201 31.9693 21.139 32.1909 21.0526 32.3132V34.2391H18.9474V32.2826C18.9474 31.0139 20.074 30.5019 20.9868 30.0815C22.1423 29.5504 23.1579 29.0803 23.1579 27.3913C23.1579 25.7749 21.7393 24.4565 20 24.4565C18.2607 24.4565 16.8421 25.7749 16.8421 27.3913H14.7368C14.7368 24.6934 17.097 22.5 20 22.5ZM18.9474 35.2174H21.0526V37.1739H18.9474V35.2174Z" fill="black" fill-opacity="0.8"/>
</svg>
