<svg width="18" height="20" viewBox="0 0 18 20" fill="none" xmlns="http://www.w3.org/2000/svg">
<mask id="path-1-inside-1" fill="white">
<path d="M1.3657 9.03602L8.33226 16.6902C8.44171 16.8106 8.63897 16.8849 8.85257 16.8859C8.8542 16.8859 8.85624 16.8859 8.85787 16.8859C9.06943 16.8859 9.26628 16.8141 9.37818 16.6961L16.6298 9.04192C16.6478 9.02288 16.6633 9.00304 16.6755 8.98293C17.5426 8.05341 18 6.9917 18 5.90774C18 2.65024 13.9621 0 8.99877 0C4.03707 0 0 2.65024 0 5.90774C0 6.99197 0.457821 8.05394 1.32527 8.98374C1.33671 9.0017 1.35018 9.01913 1.3657 9.03602ZM8.99918 0.80459C13.287 0.80459 16.7752 3.09396 16.7752 5.90801C16.7752 6.86381 16.3623 7.80031 15.5814 8.6159C15.5626 8.6352 15.5471 8.65531 15.5345 8.67622L8.86849 15.7114L2.47044 8.68185C2.45655 8.65906 2.43981 8.63681 2.41938 8.61563C1.63852 7.80005 1.22562 6.86381 1.22562 5.90774C1.22562 3.09396 4.71298 0.80459 8.99918 0.80459Z"/>
</mask>
<path d="M1.3657 9.03602L8.33226 16.6902C8.44171 16.8106 8.63897 16.8849 8.85257 16.8859C8.8542 16.8859 8.85624 16.8859 8.85787 16.8859C9.06943 16.8859 9.26628 16.8141 9.37818 16.6961L16.6298 9.04192C16.6478 9.02288 16.6633 9.00304 16.6755 8.98293C17.5426 8.05341 18 6.9917 18 5.90774C18 2.65024 13.9621 0 8.99877 0C4.03707 0 0 2.65024 0 5.90774C0 6.99197 0.457821 8.05394 1.32527 8.98374C1.33671 9.0017 1.35018 9.01913 1.3657 9.03602ZM8.99918 0.80459C13.287 0.80459 16.7752 3.09396 16.7752 5.90801C16.7752 6.86381 16.3623 7.80031 15.5814 8.6159C15.5626 8.6352 15.5471 8.65531 15.5345 8.67622L8.86849 15.7114L2.47044 8.68185C2.45655 8.65906 2.43981 8.63681 2.41938 8.61563C1.63852 7.80005 1.22562 6.86381 1.22562 5.90774C1.22562 3.09396 4.71298 0.80459 8.99918 0.80459Z" fill="white"/>
<path d="M1.3657 9.03602L5.06343 5.67049L5.05551 5.66178L5.04755 5.65312L1.3657 9.03602ZM8.33226 16.6902L12.0317 13.3266L12.03 13.3247L8.33226 16.6902ZM8.85257 16.8859L8.82746 21.8859L8.84002 21.8859H8.85257V16.8859ZM9.37818 16.6961L13.0057 20.1372L13.0079 20.1349L9.37818 16.6961ZM16.6298 9.04192L20.2595 12.4807L20.2657 12.4742L16.6298 9.04192ZM16.6755 8.98293L13.0193 5.57243L12.6712 5.94555L12.4057 6.38127L16.6755 8.98293ZM1.32527 8.98374L5.54313 6.29866L5.29564 5.90989L4.98125 5.5729L1.32527 8.98374ZM15.5814 8.6159L19.1646 12.1031L19.1789 12.0885L19.193 12.0737L15.5814 8.6159ZM15.5345 8.67622L19.1639 12.1152L19.5335 11.7253L19.8117 11.2657L15.5345 8.67622ZM8.86849 15.7114L5.17078 19.0769L8.79482 23.0586L12.498 19.1504L8.86849 15.7114ZM2.47044 8.68185L-1.79938 11.2835L-1.54995 11.6929L-1.22727 12.0474L2.47044 8.68185ZM2.41938 8.61563L-1.19217 12.0735L-1.18618 12.0797L-1.18016 12.086L2.41938 8.61563ZM1.22562 5.90774H-3.77438H1.22562ZM-2.33203 12.4016L4.63453 20.0557L12.03 13.3247L5.06343 5.67049L-2.33203 12.4016ZM4.6328 20.0538C5.95386 21.5068 7.67308 21.8801 8.82746 21.8859L8.87767 11.886C9.32742 11.8883 9.81572 11.9656 10.3141 12.1531C10.7938 12.3336 11.4424 12.6784 12.0317 13.3266L4.6328 20.0538ZM8.85257 21.8859C8.85257 21.8859 8.85257 21.8859 8.85258 21.8859C8.85258 21.8859 8.85258 21.8859 8.85259 21.8859C8.85259 21.8859 8.85259 21.8859 8.8526 21.8859C8.8526 21.8859 8.8526 21.8859 8.85261 21.8859C8.85261 21.8859 8.85261 21.8859 8.85262 21.8859C8.85262 21.8859 8.85262 21.8859 8.85262 21.8859C8.85263 21.8859 8.85263 21.8859 8.85263 21.8859C8.85264 21.8859 8.85264 21.8859 8.85264 21.8859C8.85265 21.8859 8.85265 21.8859 8.85265 21.8859C8.85266 21.8859 8.85266 21.8859 8.85266 21.8859C8.85267 21.8859 8.85267 21.8859 8.85267 21.8859C8.85268 21.8859 8.85268 21.8859 8.85268 21.8859C8.85269 21.8859 8.85269 21.8859 8.85269 21.8859C8.8527 21.8859 8.8527 21.8859 8.8527 21.8859C8.85271 21.8859 8.85271 21.8859 8.85271 21.8859C8.85271 21.8859 8.85272 21.8859 8.85272 21.8859C8.85273 21.8859 8.85273 21.8859 8.85273 21.8859C8.85273 21.8859 8.85274 21.8859 8.85274 21.8859C8.85274 21.8859 8.85275 21.8859 8.85275 21.8859C8.85275 21.8859 8.85276 21.8859 8.85276 21.8859C8.85276 21.8859 8.85277 21.8859 8.85277 21.8859C8.85277 21.8859 8.85278 21.8859 8.85278 21.8859C8.85278 21.8859 8.85279 21.8859 8.85279 21.8859C8.85279 21.8859 8.8528 21.8859 8.8528 21.8859C8.8528 21.8859 8.85281 21.8859 8.85281 21.8859C8.85281 21.8859 8.85282 21.8859 8.85282 21.8859C8.85282 21.8859 8.85283 21.8859 8.85283 21.8859C8.85283 21.8859 8.85284 21.8859 8.85284 21.8859C8.85284 21.8859 8.85285 21.8859 8.85285 21.8859C8.85285 21.8859 8.85285 21.8859 8.85286 21.8859C8.85286 21.8859 8.85287 21.8859 8.85287 21.8859C8.85287 21.8859 8.85287 21.8859 8.85288 21.8859C8.85288 21.8859 8.85288 21.8859 8.85289 21.8859C8.85289 21.8859 8.85289 21.8859 8.8529 21.8859C8.8529 21.8859 8.8529 21.8859 8.85291 21.8859C8.85291 21.8859 8.85291 21.8859 8.85292 21.8859C8.85292 21.8859 8.85292 21.8859 8.85293 21.8859C8.85293 21.8859 8.85293 21.8859 8.85294 21.8859C8.85294 21.8859 8.85294 21.8859 8.85295 21.8859C8.85295 21.8859 8.85295 21.8859 8.85296 21.8859C8.85296 21.8859 8.85296 21.8859 8.85297 21.8859C8.85297 21.8859 8.85297 21.8859 8.85298 21.8859C8.85298 21.8859 8.85298 21.8859 8.85299 21.8859C8.85299 21.8859 8.85299 21.8859 8.853 21.8859C8.853 21.8859 8.853 21.8859 8.85301 21.8859C8.85301 21.8859 8.85301 21.8859 8.85302 21.8859C8.85302 21.8859 8.85302 21.8859 8.85303 21.8859C8.85303 21.8859 8.85303 21.8859 8.85304 21.8859C8.85304 21.8859 8.85304 21.8859 8.85305 21.8859C8.85305 21.8859 8.85305 21.8859 8.85306 21.8859C8.85306 21.8859 8.85306 21.8859 8.85307 21.8859C8.85307 21.8859 8.85307 21.8859 8.85308 21.8859C8.85308 21.8859 8.85308 21.8859 8.85309 21.8859C8.85309 21.8859 8.85309 21.8859 8.8531 21.8859C8.8531 21.8859 8.8531 21.8859 8.85311 21.8859C8.85311 21.8859 8.85311 21.8859 8.85312 21.8859C8.85312 21.8859 8.85312 21.8859 8.85313 21.8859C8.85313 21.8859 8.85313 21.8859 8.85314 21.8859C8.85314 21.8859 8.85314 21.8859 8.85315 21.8859C8.85315 21.8859 8.85315 21.8859 8.85316 21.8859C8.85316 21.8859 8.85316 21.8859 8.85317 21.8859C8.85317 21.8859 8.85317 21.8859 8.85318 21.8859C8.85318 21.8859 8.85318 21.8859 8.85319 21.8859C8.85319 21.8859 8.85319 21.8859 8.8532 21.8859C8.8532 21.8859 8.8532 21.8859 8.85321 21.8859C8.85321 21.8859 8.85321 21.8859 8.85322 21.8859C8.85322 21.8859 8.85322 21.8859 8.85323 21.8859C8.85323 21.8859 8.85323 21.8859 8.85324 21.8859C8.85324 21.8859 8.85324 21.8859 8.85325 21.8859C8.85325 21.8859 8.85325 21.8859 8.85326 21.8859C8.85326 21.8859 8.85326 21.8859 8.85327 21.8859C8.85327 21.8859 8.85327 21.8859 8.85328 21.8859C8.85328 21.8859 8.85328 21.8859 8.85329 21.8859C8.85329 21.8859 8.8533 21.8859 8.8533 21.8859C8.8533 21.8859 8.8533 21.8859 8.85331 21.8859C8.85331 21.8859 8.85332 21.8859 8.85332 21.8859C8.85332 21.8859 8.85333 21.8859 8.85333 21.8859C8.85333 21.8859 8.85334 21.8859 8.85334 21.8859C8.85334 21.8859 8.85335 21.8859 8.85335 21.8859C8.85335 21.8859 8.85336 21.8859 8.85336 21.8859C8.85336 21.8859 8.85337 21.8859 8.85337 21.8859C8.85337 21.8859 8.85338 21.8859 8.85338 21.8859C8.85338 21.8859 8.85339 21.8859 8.85339 21.8859C8.85339 21.8859 8.8534 21.8859 8.8534 21.8859C8.8534 21.8859 8.85341 21.8859 8.85341 21.8859C8.85341 21.8859 8.85342 21.8859 8.85342 21.8859C8.85342 21.8859 8.85343 21.8859 8.85343 21.8859C8.85343 21.8859 8.85344 21.8859 8.85344 21.8859C8.85345 21.8859 8.85345 21.8859 8.85345 21.8859C8.85346 21.8859 8.85346 21.8859 8.85346 21.8859C8.85347 21.8859 8.85347 21.8859 8.85347 21.8859C8.85348 21.8859 8.85348 21.8859 8.85348 21.8859C8.85349 21.8859 8.85349 21.8859 8.85349 21.8859C8.8535 21.8859 8.8535 21.8859 8.8535 21.8859C8.85351 21.8859 8.85351 21.8859 8.85351 21.8859C8.85352 21.8859 8.85352 21.8859 8.85352 21.8859C8.85353 21.8859 8.85353 21.8859 8.85353 21.8859C8.85354 21.8859 8.85354 21.8859 8.85354 21.8859C8.85355 21.8859 8.85355 21.8859 8.85355 21.8859C8.85356 21.8859 8.85356 21.8859 8.85357 21.8859C8.85357 21.8859 8.85357 21.8859 8.85357 21.8859C8.85358 21.8859 8.85358 21.8859 8.85359 21.8859C8.85359 21.8859 8.85359 21.8859 8.8536 21.8859C8.8536 21.8859 8.8536 21.8859 8.85361 21.8859C8.85361 21.8859 8.85361 21.8859 8.85362 21.8859C8.85362 21.8859 8.85362 21.8859 8.85363 21.8859C8.85363 21.8859 8.85363 21.8859 8.85364 21.8859C8.85364 21.8859 8.85364 21.8859 8.85365 21.8859C8.85365 21.8859 8.85365 21.8859 8.85366 21.8859C8.85366 21.8859 8.85367 21.8859 8.85367 21.8859C8.85367 21.8859 8.85367 21.8859 8.85368 21.8859C8.85368 21.8859 8.85369 21.8859 8.85369 21.8859C8.85369 21.8859 8.8537 21.8859 8.8537 21.8859C8.8537 21.8859 8.85371 21.8859 8.85371 21.8859C8.85371 21.8859 8.85372 21.8859 8.85372 21.8859C8.85372 21.8859 8.85373 21.8859 8.85373 21.8859C8.85373 21.8859 8.85374 21.8859 8.85374 21.8859C8.85374 21.8859 8.85375 21.8859 8.85375 21.8859C8.85375 21.8859 8.85376 21.8859 8.85376 21.8859C8.85377 21.8859 8.85377 21.8859 8.85377 21.8859C8.85378 21.8859 8.85378 21.8859 8.85378 21.8859C8.85379 21.8859 8.85379 21.8859 8.85379 21.8859C8.8538 21.8859 8.8538 21.8859 8.8538 21.8859C8.85381 21.8859 8.85381 21.8859 8.85381 21.8859C8.85382 21.8859 8.85382 21.8859 8.85382 21.8859C8.85383 21.8859 8.85383 21.8859 8.85384 21.8859C8.85384 21.8859 8.85384 21.8859 8.85385 21.8859C8.85385 21.8859 8.85385 21.8859 8.85386 21.8859C8.85386 21.8859 8.85386 21.8859 8.85387 21.8859C8.85387 21.8859 8.85387 21.8859 8.85388 21.8859C8.85388 21.8859 8.85388 21.8859 8.85389 21.8859C8.85389 21.8859 8.85389 21.8859 8.8539 21.8859C8.8539 21.8859 8.8539 21.8859 8.85391 21.8859C8.85391 21.8859 8.85392 21.8859 8.85392 21.8859C8.85392 21.8859 8.85393 21.8859 8.85393 21.8859C8.85393 21.8859 8.85394 21.8859 8.85394 21.8859C8.85394 21.8859 8.85395 21.8859 8.85395 21.8859C8.85395 21.8859 8.85396 21.8859 8.85396 21.8859C8.85396 21.8859 8.85397 21.8859 8.85397 21.8859C8.85398 21.8859 8.85398 21.8859 8.85398 21.8859C8.85399 21.8859 8.85399 21.8859 8.85399 21.8859C8.854 21.8859 8.854 21.8859 8.854 21.8859C8.85401 21.8859 8.85401 21.8859 8.85401 21.8859C8.85402 21.8859 8.85402 21.8859 8.85402 21.8859C8.85403 21.8859 8.85403 21.8859 8.85403 21.8859C8.85404 21.8859 8.85404 21.8859 8.85404 21.8859C8.85405 21.8859 8.85405 21.8859 8.85406 21.8859C8.85406 21.8859 8.85406 21.8859 8.85407 21.8859C8.85407 21.8859 8.85407 21.8859 8.85408 21.8859C8.85408 21.8859 8.85408 21.8859 8.85409 21.8859C8.85409 21.8859 8.85409 21.8859 8.8541 21.8859C8.8541 21.8859 8.8541 21.8859 8.85411 21.8859C8.85411 21.8859 8.85412 21.8859 8.85412 21.8859C8.85412 21.8859 8.85413 21.8859 8.85413 21.8859C8.85413 21.8859 8.85414 21.8859 8.85414 21.8859C8.85414 21.8859 8.85415 21.8859 8.85415 21.8859C8.85415 21.8859 8.85416 21.8859 8.85416 21.8859C8.85417 21.8859 8.85417 21.8859 8.85417 21.8859C8.85418 21.8859 8.85418 21.8859 8.85418 21.8859C8.85419 21.8859 8.85419 21.8859 8.85419 21.8859C8.8542 21.8859 8.8542 21.8859 8.8542 21.8859C8.85421 21.8859 8.85421 21.8859 8.85421 21.8859C8.85422 21.8859 8.85422 21.8859 8.85423 21.8859C8.85423 21.8859 8.85423 21.8859 8.85424 21.8859C8.85424 21.8859 8.85424 21.8859 8.85425 21.8859C8.85425 21.8859 8.85425 21.8859 8.85426 21.8859C8.85426 21.8859 8.85426 21.8859 8.85427 21.8859C8.85427 21.8859 8.85427 21.8859 8.85428 21.8859C8.85428 21.8859 8.85429 21.8859 8.85429 21.8859C8.85429 21.8859 8.8543 21.8859 8.8543 21.8859C8.8543 21.8859 8.85431 21.8859 8.85431 21.8859C8.85431 21.8859 8.85432 21.8859 8.85432 21.8859C8.85432 21.8859 8.85433 21.8859 8.85433 21.8859C8.85433 21.8859 8.85434 21.8859 8.85434 21.8859C8.85435 21.8859 8.85435 21.8859 8.85435 21.8859C8.85436 21.8859 8.85436 21.8859 8.85436 21.8859C8.85437 21.8859 8.85437 21.8859 8.85437 21.8859C8.85438 21.8859 8.85438 21.8859 8.85438 21.8859C8.85439 21.8859 8.85439 21.8859 8.85439 21.8859C8.8544 21.8859 8.8544 21.8859 8.85441 21.8859C8.85441 21.8859 8.85441 21.8859 8.85442 21.8859C8.85442 21.8859 8.85442 21.8859 8.85443 21.8859C8.85443 21.8859 8.85443 21.8859 8.85444 21.8859C8.85444 21.8859 8.85444 21.8859 8.85445 21.8859C8.85445 21.8859 8.85445 21.8859 8.85446 21.8859C8.85446 21.8859 8.85447 21.8859 8.85447 21.8859C8.85447 21.8859 8.85448 21.8859 8.85448 21.8859C8.85448 21.8859 8.85449 21.8859 8.85449 21.8859C8.85449 21.8859 8.8545 21.8859 8.8545 21.8859C8.85451 21.8859 8.85451 21.8859 8.85451 21.8859C8.85452 21.8859 8.85452 21.8859 8.85452 21.8859C8.85453 21.8859 8.85453 21.8859 8.85453 21.8859C8.85454 21.8859 8.85454 21.8859 8.85454 21.8859C8.85455 21.8859 8.85455 21.8859 8.85456 21.8859C8.85456 21.8859 8.85456 21.8859 8.85457 21.8859C8.85457 21.8859 8.85457 21.8859 8.85458 21.8859C8.85458 21.8859 8.85458 21.8859 8.85459 21.8859C8.85459 21.8859 8.85459 21.8859 8.8546 21.8859C8.8546 21.8859 8.8546 21.8859 8.85461 21.8859C8.85461 21.8859 8.85462 21.8859 8.85462 21.8859C8.85462 21.8859 8.85463 21.8859 8.85463 21.8859C8.85463 21.8859 8.85464 21.8859 8.85464 21.8859C8.85464 21.8859 8.85465 21.8859 8.85465 21.8859C8.85466 21.8859 8.85466 21.8859 8.85466 21.8859C8.85467 21.8859 8.85467 21.8859 8.85467 21.8859C8.85468 21.8859 8.85468 21.8859 8.85468 21.8859C8.85469 21.8859 8.85469 21.8859 8.85469 21.8859C8.8547 21.8859 8.8547 21.8859 8.8547 21.8859C8.85471 21.8859 8.85471 21.8859 8.85472 21.8859C8.85472 21.8859 8.85472 21.8859 8.85473 21.8859C8.85473 21.8859 8.85473 21.8859 8.85474 21.8859C8.85474 21.8859 8.85474 21.8859 8.85475 21.8859C8.85475 21.8859 8.85476 21.8859 8.85476 21.8859C8.85476 21.8859 8.85477 21.8859 8.85477 21.8859C8.85477 21.8859 8.85478 21.8859 8.85478 21.8859C8.85478 21.8859 8.85479 21.8859 8.85479 21.8859C8.85479 21.8859 8.8548 21.8859 8.8548 21.8859C8.8548 21.8859 8.85481 21.8859 8.85481 21.8859C8.85482 21.8859 8.85482 21.8859 8.85482 21.8859C8.85483 21.8859 8.85483 21.8859 8.85483 21.8859C8.85484 21.8859 8.85484 21.8859 8.85485 21.8859C8.85485 21.8859 8.85485 21.8859 8.85486 21.8859C8.85486 21.8859 8.85486 21.8859 8.85487 21.8859C8.85487 21.8859 8.85487 21.8859 8.85488 21.8859C8.85488 21.8859 8.85488 21.8859 8.85489 21.8859C8.85489 21.8859 8.85489 21.8859 8.8549 21.8859C8.8549 21.8859 8.85491 21.8859 8.85491 21.8859C8.85491 21.8859 8.85492 21.8859 8.85492 21.8859C8.85492 21.8859 8.85493 21.8859 8.85493 21.8859C8.85493 21.8859 8.85494 21.8859 8.85494 21.8859C8.85495 21.8859 8.85495 21.8859 8.85495 21.8859C8.85496 21.8859 8.85496 21.8859 8.85496 21.8859C8.85497 21.8859 8.85497 21.8859 8.85497 21.8859C8.85498 21.8859 8.85498 21.8859 8.85498 21.8859C8.85499 21.8859 8.85499 21.8859 8.85499 21.8859C8.855 21.8859 8.855 21.8859 8.85501 21.8859C8.85501 21.8859 8.85501 21.8859 8.85502 21.8859C8.85502 21.8859 8.85502 21.8859 8.85503 21.8859C8.85503 21.8859 8.85503 21.8859 8.85504 21.8859C8.85504 21.8859 8.85505 21.8859 8.85505 21.8859C8.85505 21.8859 8.85506 21.8859 8.85506 21.8859C8.85506 21.8859 8.85507 21.8859 8.85507 21.8859C8.85507 21.8859 8.85508 21.8859 8.85508 21.8859C8.85508 21.8859 8.85509 21.8859 8.85509 21.8859C8.8551 21.8859 8.8551 21.8859 8.8551 21.8859C8.85511 21.8859 8.85511 21.8859 8.85511 21.8859C8.85512 21.8859 8.85512 21.8859 8.85512 21.8859C8.85513 21.8859 8.85513 21.8859 8.85513 21.8859C8.85514 21.8859 8.85514 21.8859 8.85515 21.8859C8.85515 21.8859 8.85515 21.8859 8.85516 21.8859C8.85516 21.8859 8.85516 21.8859 8.85517 21.8859C8.85517 21.8859 8.85517 21.8859 8.85518 21.8859C8.85518 21.8859 8.85519 21.8859 8.85519 21.8859C8.85519 21.8859 8.8552 21.8859 8.8552 21.8859C8.8552 21.8859 8.85521 21.8859 8.85521 21.8859C8.85521 21.8859 8.85522 21.8859 8.85522 21.8859C8.85522 21.8859 8.85523 21.8859 8.85523 21.8859C8.85524 21.8859 8.85524 21.8859 8.85524 21.8859C8.85525 21.8859 8.85525 21.8859 8.85525 21.8859C8.85526 21.8859 8.85526 21.8859 8.85526 21.8859C8.85527 21.8859 8.85527 21.8859 8.85528 21.8859C8.85528 21.8859 8.85528 21.8859 8.85529 21.8859C8.85529 21.8859 8.85529 21.8859 8.8553 21.8859C8.8553 21.8859 8.8553 21.8859 8.85531 21.8859C8.85531 21.8859 8.85531 21.8859 8.85532 21.8859C8.85532 21.8859 8.85532 21.8859 8.85533 21.8859C8.85533 21.8859 8.85534 21.8859 8.85534 21.8859C8.85534 21.8859 8.85535 21.8859 8.85535 21.8859C8.85535 21.8859 8.85536 21.8859 8.85536 21.8859C8.85536 21.8859 8.85537 21.8859 8.85537 21.8859C8.85538 21.8859 8.85538 21.8859 8.85538 21.8859C8.85539 21.8859 8.85539 21.8859 8.85539 21.8859C8.8554 21.8859 8.8554 21.8859 8.8554 21.8859C8.85541 21.8859 8.85541 21.8859 8.85541 21.8859C8.85542 21.8859 8.85542 21.8859 8.85543 21.8859C8.85543 21.8859 8.85543 21.8859 8.85544 21.8859C8.85544 21.8859 8.85544 21.8859 8.85545 21.8859C8.85545 21.8859 8.85545 21.8859 8.85546 21.8859C8.85546 21.8859 8.85546 21.8859 8.85547 21.8859C8.85547 21.8859 8.85548 21.8859 8.85548 21.8859C8.85548 21.8859 8.85549 21.8859 8.85549 21.8859C8.85549 21.8859 8.8555 21.8859 8.8555 21.8859C8.8555 21.8859 8.85551 21.8859 8.85551 21.8859C8.85552 21.8859 8.85552 21.8859 8.85552 21.8859C8.85553 21.8859 8.85553 21.8859 8.85553 21.8859C8.85554 21.8859 8.85554 21.8859 8.85554 21.8859C8.85555 21.8859 8.85555 21.8859 8.85555 21.8859C8.85556 21.8859 8.85556 21.8859 8.85557 21.8859C8.85557 21.8859 8.85557 21.8859 8.85558 21.8859C8.85558 21.8859 8.85558 21.8859 8.85559 21.8859C8.85559 21.8859 8.85559 21.8859 8.8556 21.8859C8.8556 21.8859 8.85561 21.8859 8.85561 21.8859C8.85561 21.8859 8.85562 21.8859 8.85562 21.8859C8.85562 21.8859 8.85563 21.8859 8.85563 21.8859C8.85563 21.8859 8.85564 21.8859 8.85564 21.8859C8.85564 21.8859 8.85565 21.8859 8.85565 21.8859C8.85565 21.8859 8.85566 21.8859 8.85566 21.8859C8.85567 21.8859 8.85567 21.8859 8.85567 21.8859C8.85568 21.8859 8.85568 21.8859 8.85568 21.8859C8.85569 21.8859 8.85569 21.8859 8.85569 21.8859C8.8557 21.8859 8.8557 21.8859 8.85571 21.8859C8.85571 21.8859 8.85571 21.8859 8.85572 21.8859C8.85572 21.8859 8.85572 21.8859 8.85573 21.8859C8.85573 21.8859 8.85573 21.8859 8.85574 21.8859C8.85574 21.8859 8.85574 21.8859 8.85575 21.8859C8.85575 21.8859 8.85575 21.8859 8.85576 21.8859C8.85576 21.8859 8.85577 21.8859 8.85577 21.8859C8.85577 21.8859 8.85578 21.8859 8.85578 21.8859C8.85578 21.8859 8.85579 21.8859 8.85579 21.8859C8.85579 21.8859 8.8558 21.8859 8.8558 21.8859C8.85581 21.8859 8.85581 21.8859 8.85581 21.8859C8.85582 21.8859 8.85582 21.8859 8.85582 21.8859C8.85583 21.8859 8.85583 21.8859 8.85583 21.8859C8.85584 21.8859 8.85584 21.8859 8.85584 21.8859C8.85585 21.8859 8.85585 21.8859 8.85585 21.8859C8.85586 21.8859 8.85586 21.8859 8.85587 21.8859C8.85587 21.8859 8.85587 21.8859 8.85588 21.8859C8.85588 21.8859 8.85588 21.8859 8.85589 21.8859C8.85589 21.8859 8.85589 21.8859 8.8559 21.8859C8.8559 21.8859 8.8559 21.8859 8.85591 21.8859C8.85591 21.8859 8.85592 21.8859 8.85592 21.8859C8.85592 21.8859 8.85593 21.8859 8.85593 21.8859C8.85593 21.8859 8.85594 21.8859 8.85594 21.8859C8.85594 21.8859 8.85595 21.8859 8.85595 21.8859C8.85596 21.8859 8.85596 21.8859 8.85596 21.8859C8.85597 21.8859 8.85597 21.8859 8.85597 21.8859C8.85598 21.8859 8.85598 21.8859 8.85598 21.8859C8.85599 21.8859 8.85599 21.8859 8.85599 21.8859C8.856 21.8859 8.856 21.8859 8.856 21.8859C8.85601 21.8859 8.85601 21.8859 8.85602 21.8859C8.85602 21.8859 8.85602 21.8859 8.85603 21.8859C8.85603 21.8859 8.85603 21.8859 8.85604 21.8859C8.85604 21.8859 8.85604 21.8859 8.85605 21.8859C8.85605 21.8859 8.85605 21.8859 8.85606 21.8859C8.85606 21.8859 8.85606 21.8859 8.85607 21.8859C8.85607 21.8859 8.85608 21.8859 8.85608 21.8859C8.85608 21.8859 8.85609 21.8859 8.85609 21.8859C8.85609 21.8859 8.8561 21.8859 8.8561 21.8859C8.8561 21.8859 8.85611 21.8859 8.85611 21.8859C8.85611 21.8859 8.85612 21.8859 8.85612 21.8859C8.85612 21.8859 8.85613 21.8859 8.85613 21.8859C8.85614 21.8859 8.85614 21.8859 8.85614 21.8859C8.85615 21.8859 8.85615 21.8859 8.85615 21.8859C8.85616 21.8859 8.85616 21.8859 8.85616 21.8859C8.85617 21.8859 8.85617 21.8859 8.85617 21.8859C8.85618 21.8859 8.85618 21.8859 8.85619 21.8859C8.85619 21.8859 8.85619 21.8859 8.8562 21.8859C8.8562 21.8859 8.8562 21.8859 8.85621 21.8859C8.85621 21.8859 8.85621 21.8859 8.85622 21.8859C8.85622 21.8859 8.85622 21.8859 8.85623 21.8859C8.85623 21.8859 8.85623 21.8859 8.85624 21.8859C8.85624 21.8859 8.85625 21.8859 8.85625 21.8859C8.85625 21.8859 8.85626 21.8859 8.85626 21.8859C8.85626 21.8859 8.85627 21.8859 8.85627 21.8859C8.85627 21.8859 8.85628 21.8859 8.85628 21.8859C8.85628 21.8859 8.85629 21.8859 8.85629 21.8859C8.85629 21.8859 8.8563 21.8859 8.8563 21.8859C8.85631 21.8859 8.85631 21.8859 8.85631 21.8859C8.85632 21.8859 8.85632 21.8859 8.85632 21.8859C8.85633 21.8859 8.85633 21.8859 8.85633 21.8859C8.85634 21.8859 8.85634 21.8859 8.85634 21.8859C8.85635 21.8859 8.85635 21.8859 8.85635 21.8859C8.85636 21.8859 8.85636 21.8859 8.85637 21.8859C8.85637 21.8859 8.85637 21.8859 8.85638 21.8859C8.85638 21.8859 8.85638 21.8859 8.85639 21.8859C8.85639 21.8859 8.85639 21.8859 8.8564 21.8859C8.8564 21.8859 8.8564 21.8859 8.85641 21.8859C8.85641 21.8859 8.85641 21.8859 8.85642 21.8859C8.85642 21.8859 8.85643 21.8859 8.85643 21.8859C8.85643 21.8859 8.85644 21.8859 8.85644 21.8859C8.85644 21.8859 8.85645 21.8859 8.85645 21.8859C8.85645 21.8859 8.85646 21.8859 8.85646 21.8859C8.85646 21.8859 8.85647 21.8859 8.85647 21.8859C8.85647 21.8859 8.85648 21.8859 8.85648 21.8859C8.85648 21.8859 8.85649 21.8859 8.85649 21.8859C8.85649 21.8859 8.8565 21.8859 8.8565 21.8859C8.85651 21.8859 8.85651 21.8859 8.85651 21.8859C8.85652 21.8859 8.85652 21.8859 8.85652 21.8859C8.85653 21.8859 8.85653 21.8859 8.85653 21.8859C8.85654 21.8859 8.85654 21.8859 8.85654 21.8859C8.85655 21.8859 8.85655 21.8859 8.85655 21.8859C8.85656 21.8859 8.85656 21.8859 8.85657 21.8859C8.85657 21.8859 8.85657 21.8859 8.85658 21.8859C8.85658 21.8859 8.85658 21.8859 8.85659 21.8859C8.85659 21.8859 8.85659 21.8859 8.8566 21.8859C8.8566 21.8859 8.8566 21.8859 8.85661 21.8859C8.85661 21.8859 8.85661 21.8859 8.85662 21.8859C8.85662 21.8859 8.85662 21.8859 8.85663 21.8859C8.85663 21.8859 8.85664 21.8859 8.85664 21.8859C8.85664 21.8859 8.85665 21.8859 8.85665 21.8859C8.85665 21.8859 8.85666 21.8859 8.85666 21.8859C8.85666 21.8859 8.85667 21.8859 8.85667 21.8859C8.85667 21.8859 8.85668 21.8859 8.85668 21.8859C8.85668 21.8859 8.85669 21.8859 8.85669 21.8859C8.85669 21.8859 8.8567 21.8859 8.8567 21.8859C8.8567 21.8859 8.85671 21.8859 8.85671 21.8859C8.85672 21.8859 8.85672 21.8859 8.85672 21.8859C8.85673 21.8859 8.85673 21.8859 8.85673 21.8859C8.85674 21.8859 8.85674 21.8859 8.85674 21.8859C8.85675 21.8859 8.85675 21.8859 8.85675 21.8859C8.85676 21.8859 8.85676 21.8859 8.85676 21.8859C8.85677 21.8859 8.85677 21.8859 8.85677 21.8859C8.85678 21.8859 8.85678 21.8859 8.85678 21.8859C8.85679 21.8859 8.85679 21.8859 8.85679 21.8859C8.8568 21.8859 8.8568 21.8859 8.8568 21.8859C8.85681 21.8859 8.85681 21.8859 8.85682 21.8859C8.85682 21.8859 8.85682 21.8859 8.85683 21.8859C8.85683 21.8859 8.85683 21.8859 8.85684 21.8859C8.85684 21.8859 8.85684 21.8859 8.85685 21.8859C8.85685 21.8859 8.85685 21.8859 8.85686 21.8859C8.85686 21.8859 8.85686 21.8859 8.85687 21.8859C8.85687 21.8859 8.85687 21.8859 8.85688 21.8859C8.85688 21.8859 8.85688 21.8859 8.85689 21.8859C8.85689 21.8859 8.85689 21.8859 8.8569 21.8859C8.8569 21.8859 8.8569 21.8859 8.85691 21.8859C8.85691 21.8859 8.85692 21.8859 8.85692 21.8859C8.85692 21.8859 8.85693 21.8859 8.85693 21.8859C8.85693 21.8859 8.85694 21.8859 8.85694 21.8859C8.85694 21.8859 8.85695 21.8859 8.85695 21.8859C8.85695 21.8859 8.85696 21.8859 8.85696 21.8859C8.85696 21.8859 8.85697 21.8859 8.85697 21.8859C8.85697 21.8859 8.85698 21.8859 8.85698 21.8859C8.85698 21.8859 8.85699 21.8859 8.85699 21.8859C8.85699 21.8859 8.857 21.8859 8.857 21.8859C8.857 21.8859 8.85701 21.8859 8.85701 21.8859C8.85701 21.8859 8.85702 21.8859 8.85702 21.8859C8.85702 21.8859 8.85703 21.8859 8.85703 21.8859C8.85703 21.8859 8.85704 21.8859 8.85704 21.8859C8.85705 21.8859 8.85705 21.8859 8.85705 21.8859C8.85706 21.8859 8.85706 21.8859 8.85706 21.8859C8.85707 21.8859 8.85707 21.8859 8.85707 21.8859C8.85708 21.8859 8.85708 21.8859 8.85708 21.8859C8.85709 21.8859 8.85709 21.8859 8.85709 21.8859C8.8571 21.8859 8.8571 21.8859 8.8571 21.8859C8.85711 21.8859 8.85711 21.8859 8.85711 21.8859C8.85712 21.8859 8.85712 21.8859 8.85712 21.8859C8.85713 21.8859 8.85713 21.8859 8.85713 21.8859C8.85714 21.8859 8.85714 21.8859 8.85714 21.8859C8.85715 21.8859 8.85715 21.8859 8.85715 21.8859C8.85716 21.8859 8.85716 21.8859 8.85716 21.8859C8.85717 21.8859 8.85717 21.8859 8.85717 21.8859C8.85718 21.8859 8.85718 21.8859 8.85718 21.8859C8.85719 21.8859 8.85719 21.8859 8.85719 21.8859C8.8572 21.8859 8.8572 21.8859 8.8572 21.8859C8.85721 21.8859 8.85721 21.8859 8.85721 21.8859C8.85722 21.8859 8.85722 21.8859 8.85722 21.8859C8.85723 21.8859 8.85723 21.8859 8.85723 21.8859C8.85724 21.8859 8.85724 21.8859 8.85724 21.8859C8.85725 21.8859 8.85725 21.8859 8.85725 21.8859C8.85726 21.8859 8.85726 21.8859 8.85727 21.8859C8.85727 21.8859 8.85727 21.8859 8.85728 21.8859C8.85728 21.8859 8.85728 21.8859 8.85729 21.8859C8.85729 21.8859 8.85729 21.8859 8.8573 21.8859C8.8573 21.8859 8.8573 21.8859 8.85731 21.8859C8.85731 21.8859 8.85731 21.8859 8.85732 21.8859C8.85732 21.8859 8.85732 21.8859 8.85733 21.8859C8.85733 21.8859 8.85733 21.8859 8.85734 21.8859C8.85734 21.8859 8.85734 21.8859 8.85735 21.8859C8.85735 21.8859 8.85735 21.8859 8.85736 21.8859C8.85736 21.8859 8.85736 21.8859 8.85737 21.8859C8.85737 21.8859 8.85737 21.8859 8.85738 21.8859C8.85738 21.8859 8.85738 21.8859 8.85739 21.8859C8.85739 21.8859 8.85739 21.8859 8.8574 21.8859C8.8574 21.8859 8.8574 21.8859 8.85741 21.8859C8.85741 21.8859 8.85741 21.8859 8.85742 21.8859C8.85742 21.8859 8.85742 21.8859 8.85743 21.8859C8.85743 21.8859 8.85743 21.8859 8.85744 21.8859C8.85744 21.8859 8.85744 21.8859 8.85745 21.8859C8.85745 21.8859 8.85745 21.8859 8.85746 21.8859C8.85746 21.8859 8.85746 21.8859 8.85746 21.8859C8.85747 21.8859 8.85747 21.8859 8.85748 21.8859C8.85748 21.8859 8.85748 21.8859 8.85748 21.8859C8.85749 21.8859 8.85749 21.8859 8.8575 21.8859C8.8575 21.8859 8.8575 21.8859 8.8575 21.8859C8.85751 21.8859 8.85751 21.8859 8.85751 21.8859C8.85752 21.8859 8.85752 21.8859 8.85752 21.8859C8.85753 21.8859 8.85753 21.8859 8.85753 21.8859C8.85754 21.8859 8.85754 21.8859 8.85754 21.8859C8.85755 21.8859 8.85755 21.8859 8.85755 21.8859C8.85756 21.8859 8.85756 21.8859 8.85756 21.8859C8.85757 21.8859 8.85757 21.8859 8.85757 21.8859C8.85758 21.8859 8.85758 21.8859 8.85758 21.8859C8.85759 21.8859 8.85759 21.8859 8.85759 21.8859C8.8576 21.8859 8.8576 21.8859 8.8576 21.8859C8.85761 21.8859 8.85761 21.8859 8.85761 21.8859C8.85762 21.8859 8.85762 21.8859 8.85762 21.8859C8.85763 21.8859 8.85763 21.8859 8.85763 21.8859C8.85764 21.8859 8.85764 21.8859 8.85764 21.8859C8.85765 21.8859 8.85765 21.8859 8.85765 21.8859C8.85766 21.8859 8.85766 21.8859 8.85766 21.8859C8.85767 21.8859 8.85767 21.8859 8.85767 21.8859C8.85768 21.8859 8.85768 21.8859 8.85768 21.8859C8.85769 21.8859 8.85769 21.8859 8.85769 21.8859C8.85769 21.8859 8.8577 21.8859 8.8577 21.8859C8.8577 21.8859 8.85771 21.8859 8.85771 21.8859C8.85771 21.8859 8.85772 21.8859 8.85772 21.8859C8.85772 21.8859 8.85773 21.8859 8.85773 21.8859C8.85773 21.8859 8.85774 21.8859 8.85774 21.8859C8.85774 21.8859 8.85775 21.8859 8.85775 21.8859C8.85775 21.8859 8.85776 21.8859 8.85776 21.8859C8.85776 21.8859 8.85777 21.8859 8.85777 21.8859C8.85777 21.8859 8.85778 21.8859 8.85778 21.8859C8.85778 21.8859 8.85779 21.8859 8.85779 21.8859C8.85779 21.8859 8.85779 21.8859 8.8578 21.8859C8.8578 21.8859 8.8578 21.8859 8.85781 21.8859C8.85781 21.8859 8.85781 21.8859 8.85782 21.8859C8.85782 21.8859 8.85782 21.8859 8.85783 21.8859C8.85783 21.8859 8.85783 21.8859 8.85784 21.8859C8.85784 21.8859 8.85784 21.8859 8.85785 21.8859C8.85785 21.8859 8.85785 21.8859 8.85786 21.8859C8.85786 21.8859 8.85786 21.8859 8.85787 21.8859C8.85787 21.8859 8.85787 21.8859 8.85787 21.8859V11.8859C8.85787 11.8859 8.85787 11.8859 8.85787 11.8859C8.85786 11.8859 8.85786 11.8859 8.85786 11.8859C8.85785 11.8859 8.85785 11.8859 8.85785 11.8859C8.85784 11.8859 8.85784 11.8859 8.85784 11.8859C8.85783 11.8859 8.85783 11.8859 8.85783 11.8859C8.85782 11.8859 8.85782 11.8859 8.85782 11.8859C8.85781 11.8859 8.85781 11.8859 8.85781 11.8859C8.8578 11.8859 8.8578 11.8859 8.8578 11.8859C8.85779 11.8859 8.85779 11.8859 8.85779 11.8859C8.85779 11.8859 8.85778 11.8859 8.85778 11.8859C8.85778 11.8859 8.85777 11.8859 8.85777 11.8859C8.85777 11.8859 8.85776 11.8859 8.85776 11.8859C8.85776 11.8859 8.85775 11.8859 8.85775 11.8859C8.85775 11.8859 8.85774 11.8859 8.85774 11.8859C8.85774 11.8859 8.85773 11.8859 8.85773 11.8859C8.85773 11.8859 8.85772 11.8859 8.85772 11.8859C8.85772 11.8859 8.85771 11.8859 8.85771 11.8859C8.85771 11.8859 8.8577 11.8859 8.8577 11.8859C8.8577 11.8859 8.85769 11.8859 8.85769 11.8859C8.85769 11.8859 8.85769 11.8859 8.85768 11.8859C8.85768 11.8859 8.85768 11.8859 8.85767 11.8859C8.85767 11.8859 8.85767 11.8859 8.85766 11.8859C8.85766 11.8859 8.85766 11.8859 8.85765 11.8859C8.85765 11.8859 8.85765 11.8859 8.85764 11.8859C8.85764 11.8859 8.85764 11.8859 8.85763 11.8859C8.85763 11.8859 8.85763 11.8859 8.85762 11.8859C8.85762 11.8859 8.85762 11.8859 8.85761 11.8859C8.85761 11.8859 8.85761 11.8859 8.8576 11.8859C8.8576 11.8859 8.8576 11.8859 8.85759 11.8859C8.85759 11.8859 8.85759 11.8859 8.85758 11.8859C8.85758 11.8859 8.85758 11.8859 8.85757 11.8859C8.85757 11.8859 8.85757 11.8859 8.85756 11.8859C8.85756 11.8859 8.85756 11.8859 8.85755 11.8859C8.85755 11.8859 8.85755 11.8859 8.85754 11.8859C8.85754 11.8859 8.85754 11.8859 8.85753 11.8859C8.85753 11.8859 8.85753 11.8859 8.85752 11.8859C8.85752 11.8859 8.85752 11.8859 8.85751 11.8859C8.85751 11.8859 8.85751 11.8859 8.8575 11.8859C8.8575 11.8859 8.8575 11.8859 8.8575 11.8859C8.85749 11.8859 8.85749 11.8859 8.85748 11.8859C8.85748 11.8859 8.85748 11.8859 8.85748 11.8859C8.85747 11.8859 8.85747 11.8859 8.85746 11.8859C8.85746 11.8859 8.85746 11.8859 8.85746 11.8859C8.85745 11.8859 8.85745 11.8859 8.85745 11.8859C8.85744 11.8859 8.85744 11.8859 8.85744 11.8859C8.85743 11.8859 8.85743 11.8859 8.85743 11.8859C8.85742 11.8859 8.85742 11.8859 8.85742 11.8859C8.85741 11.8859 8.85741 11.8859 8.85741 11.8859C8.8574 11.8859 8.8574 11.8859 8.8574 11.8859C8.85739 11.8859 8.85739 11.8859 8.85739 11.8859C8.85738 11.8859 8.85738 11.8859 8.85738 11.8859C8.85737 11.8859 8.85737 11.8859 8.85737 11.8859C8.85736 11.8859 8.85736 11.8859 8.85736 11.8859C8.85735 11.8859 8.85735 11.8859 8.85735 11.8859C8.85734 11.8859 8.85734 11.8859 8.85734 11.8859C8.85733 11.8859 8.85733 11.8859 8.85733 11.8859C8.85732 11.8859 8.85732 11.8859 8.85732 11.8859C8.85731 11.8859 8.85731 11.8859 8.85731 11.8859C8.8573 11.8859 8.8573 11.8859 8.8573 11.8859C8.85729 11.8859 8.85729 11.8859 8.85729 11.8859C8.85728 11.8859 8.85728 11.8859 8.85728 11.8859C8.85727 11.8859 8.85727 11.8859 8.85727 11.8859C8.85726 11.8859 8.85726 11.8859 8.85725 11.8859C8.85725 11.8859 8.85725 11.8859 8.85724 11.8859C8.85724 11.8859 8.85724 11.8859 8.85723 11.8859C8.85723 11.8859 8.85723 11.8859 8.85722 11.8859C8.85722 11.8859 8.85722 11.8859 8.85721 11.8859C8.85721 11.8859 8.85721 11.8859 8.8572 11.8859C8.8572 11.8859 8.8572 11.8859 8.85719 11.8859C8.85719 11.8859 8.85719 11.8859 8.85718 11.8859C8.85718 11.8859 8.85718 11.8859 8.85717 11.8859C8.85717 11.8859 8.85717 11.8859 8.85716 11.8859C8.85716 11.8859 8.85716 11.8859 8.85715 11.8859C8.85715 11.8859 8.85715 11.8859 8.85714 11.8859C8.85714 11.8859 8.85714 11.8859 8.85713 11.8859C8.85713 11.8859 8.85713 11.8859 8.85712 11.8859C8.85712 11.8859 8.85712 11.8859 8.85711 11.8859C8.85711 11.8859 8.85711 11.8859 8.8571 11.8859C8.8571 11.8859 8.8571 11.8859 8.85709 11.8859C8.85709 11.8859 8.85709 11.8859 8.85708 11.8859C8.85708 11.8859 8.85708 11.8859 8.85707 11.8859C8.85707 11.8859 8.85707 11.8859 8.85706 11.8859C8.85706 11.8859 8.85706 11.8859 8.85705 11.8859C8.85705 11.8859 8.85705 11.8859 8.85704 11.8859C8.85704 11.8859 8.85703 11.8859 8.85703 11.8859C8.85703 11.8859 8.85702 11.8859 8.85702 11.8859C8.85702 11.8859 8.85701 11.8859 8.85701 11.8859C8.85701 11.8859 8.857 11.8859 8.857 11.8859C8.857 11.8859 8.85699 11.8859 8.85699 11.8859C8.85699 11.8859 8.85698 11.8859 8.85698 11.8859C8.85698 11.8859 8.85697 11.8859 8.85697 11.8859C8.85697 11.8859 8.85696 11.8859 8.85696 11.8859C8.85696 11.8859 8.85695 11.8859 8.85695 11.8859C8.85695 11.8859 8.85694 11.8859 8.85694 11.8859C8.85694 11.8859 8.85693 11.8859 8.85693 11.8859C8.85693 11.8859 8.85692 11.8859 8.85692 11.8859C8.85692 11.8859 8.85691 11.8859 8.85691 11.8859C8.8569 11.8859 8.8569 11.8859 8.8569 11.8859C8.85689 11.8859 8.85689 11.8859 8.85689 11.8859C8.85688 11.8859 8.85688 11.8859 8.85688 11.8859C8.85687 11.8859 8.85687 11.8859 8.85687 11.8859C8.85686 11.8859 8.85686 11.8859 8.85686 11.8859C8.85685 11.8859 8.85685 11.8859 8.85685 11.8859C8.85684 11.8859 8.85684 11.8859 8.85684 11.8859C8.85683 11.8859 8.85683 11.8859 8.85683 11.8859C8.85682 11.8859 8.85682 11.8859 8.85682 11.8859C8.85681 11.8859 8.85681 11.8859 8.8568 11.8859C8.8568 11.8859 8.8568 11.8859 8.85679 11.8859C8.85679 11.8859 8.85679 11.8859 8.85678 11.8859C8.85678 11.8859 8.85678 11.8859 8.85677 11.8859C8.85677 11.8859 8.85677 11.8859 8.85676 11.8859C8.85676 11.8859 8.85676 11.8859 8.85675 11.8859C8.85675 11.8859 8.85675 11.8859 8.85674 11.8859C8.85674 11.8859 8.85674 11.8859 8.85673 11.8859C8.85673 11.8859 8.85673 11.8859 8.85672 11.8859C8.85672 11.8859 8.85672 11.8859 8.85671 11.8859C8.85671 11.8859 8.8567 11.8859 8.8567 11.8859C8.8567 11.8859 8.85669 11.8859 8.85669 11.8859C8.85669 11.8859 8.85668 11.8859 8.85668 11.8859C8.85668 11.8859 8.85667 11.8859 8.85667 11.8859C8.85667 11.8859 8.85666 11.8859 8.85666 11.8859C8.85666 11.8859 8.85665 11.8859 8.85665 11.8859C8.85665 11.8859 8.85664 11.8859 8.85664 11.8859C8.85664 11.8859 8.85663 11.8859 8.85663 11.8859C8.85662 11.8859 8.85662 11.8859 8.85662 11.8859C8.85661 11.8859 8.85661 11.8859 8.85661 11.8859C8.8566 11.8859 8.8566 11.8859 8.8566 11.8859C8.85659 11.8859 8.85659 11.8859 8.85659 11.8859C8.85658 11.8859 8.85658 11.8859 8.85658 11.8859C8.85657 11.8859 8.85657 11.8859 8.85657 11.8859C8.85656 11.8859 8.85656 11.8859 8.85655 11.8859C8.85655 11.8859 8.85655 11.8859 8.85654 11.8859C8.85654 11.8859 8.85654 11.8859 8.85653 11.8859C8.85653 11.8859 8.85653 11.8859 8.85652 11.8859C8.85652 11.8859 8.85652 11.8859 8.85651 11.8859C8.85651 11.8859 8.85651 11.8859 8.8565 11.8859C8.8565 11.8859 8.85649 11.8859 8.85649 11.8859C8.85649 11.8859 8.85648 11.8859 8.85648 11.8859C8.85648 11.8859 8.85647 11.8859 8.85647 11.8859C8.85647 11.8859 8.85646 11.8859 8.85646 11.8859C8.85646 11.8859 8.85645 11.8859 8.85645 11.8859C8.85645 11.8859 8.85644 11.8859 8.85644 11.8859C8.85644 11.8859 8.85643 11.8859 8.85643 11.8859C8.85643 11.8859 8.85642 11.8859 8.85642 11.8859C8.85641 11.8859 8.85641 11.8859 8.85641 11.8859C8.8564 11.8859 8.8564 11.8859 8.8564 11.8859C8.85639 11.8859 8.85639 11.8859 8.85639 11.8859C8.85638 11.8859 8.85638 11.8859 8.85638 11.8859C8.85637 11.8859 8.85637 11.8859 8.85637 11.8859C8.85636 11.8859 8.85636 11.8859 8.85635 11.8859C8.85635 11.8859 8.85635 11.8859 8.85634 11.8859C8.85634 11.8859 8.85634 11.8859 8.85633 11.8859C8.85633 11.8859 8.85633 11.8859 8.85632 11.8859C8.85632 11.8859 8.85632 11.8859 8.85631 11.8859C8.85631 11.8859 8.85631 11.8859 8.8563 11.8859C8.8563 11.8859 8.85629 11.8859 8.85629 11.8859C8.85629 11.8859 8.85628 11.8859 8.85628 11.8859C8.85628 11.8859 8.85627 11.8859 8.85627 11.8859C8.85627 11.8859 8.85626 11.8859 8.85626 11.8859C8.85626 11.8859 8.85625 11.8859 8.85625 11.8859C8.85625 11.8859 8.85624 11.8859 8.85624 11.8859C8.85623 11.8859 8.85623 11.8859 8.85623 11.8859C8.85622 11.8859 8.85622 11.8859 8.85622 11.8859C8.85621 11.8859 8.85621 11.8859 8.85621 11.8859C8.8562 11.8859 8.8562 11.8859 8.8562 11.8859C8.85619 11.8859 8.85619 11.8859 8.85619 11.8859C8.85618 11.8859 8.85618 11.8859 8.85617 11.8859C8.85617 11.8859 8.85617 11.8859 8.85616 11.8859C8.85616 11.8859 8.85616 11.8859 8.85615 11.8859C8.85615 11.8859 8.85615 11.8859 8.85614 11.8859C8.85614 11.8859 8.85614 11.8859 8.85613 11.8859C8.85613 11.8859 8.85612 11.8859 8.85612 11.8859C8.85612 11.8859 8.85611 11.8859 8.85611 11.8859C8.85611 11.8859 8.8561 11.8859 8.8561 11.8859C8.8561 11.8859 8.85609 11.8859 8.85609 11.8859C8.85609 11.8859 8.85608 11.8859 8.85608 11.8859C8.85608 11.8859 8.85607 11.8859 8.85607 11.8859C8.85606 11.8859 8.85606 11.8859 8.85606 11.8859C8.85605 11.8859 8.85605 11.8859 8.85605 11.8859C8.85604 11.8859 8.85604 11.8859 8.85604 11.8859C8.85603 11.8859 8.85603 11.8859 8.85603 11.8859C8.85602 11.8859 8.85602 11.8859 8.85602 11.8859C8.85601 11.8859 8.85601 11.8859 8.856 11.8859C8.856 11.8859 8.856 11.8859 8.85599 11.8859C8.85599 11.8859 8.85599 11.8859 8.85598 11.8859C8.85598 11.8859 8.85598 11.8859 8.85597 11.8859C8.85597 11.8859 8.85597 11.8859 8.85596 11.8859C8.85596 11.8859 8.85596 11.8859 8.85595 11.8859C8.85595 11.8859 8.85594 11.8859 8.85594 11.8859C8.85594 11.8859 8.85593 11.8859 8.85593 11.8859C8.85593 11.8859 8.85592 11.8859 8.85592 11.8859C8.85592 11.8859 8.85591 11.8859 8.85591 11.8859C8.8559 11.8859 8.8559 11.8859 8.8559 11.8859C8.85589 11.8859 8.85589 11.8859 8.85589 11.8859C8.85588 11.8859 8.85588 11.8859 8.85588 11.8859C8.85587 11.8859 8.85587 11.8859 8.85587 11.8859C8.85586 11.8859 8.85586 11.8859 8.85585 11.8859C8.85585 11.8859 8.85585 11.8859 8.85584 11.8859C8.85584 11.8859 8.85584 11.8859 8.85583 11.8859C8.85583 11.8859 8.85583 11.8859 8.85582 11.8859C8.85582 11.8859 8.85582 11.8859 8.85581 11.8859C8.85581 11.8859 8.85581 11.8859 8.8558 11.8859C8.8558 11.8859 8.85579 11.8859 8.85579 11.8859C8.85579 11.8859 8.85578 11.8859 8.85578 11.8859C8.85578 11.8859 8.85577 11.8859 8.85577 11.8859C8.85577 11.8859 8.85576 11.8859 8.85576 11.8859C8.85575 11.8859 8.85575 11.8859 8.85575 11.8859C8.85574 11.8859 8.85574 11.8859 8.85574 11.8859C8.85573 11.8859 8.85573 11.8859 8.85573 11.8859C8.85572 11.8859 8.85572 11.8859 8.85572 11.8859C8.85571 11.8859 8.85571 11.8859 8.85571 11.8859C8.8557 11.8859 8.8557 11.8859 8.85569 11.8859C8.85569 11.8859 8.85569 11.8859 8.85568 11.8859C8.85568 11.8859 8.85568 11.8859 8.85567 11.8859C8.85567 11.8859 8.85567 11.8859 8.85566 11.8859C8.85566 11.8859 8.85565 11.8859 8.85565 11.8859C8.85565 11.8859 8.85564 11.8859 8.85564 11.8859C8.85564 11.8859 8.85563 11.8859 8.85563 11.8859C8.85563 11.8859 8.85562 11.8859 8.85562 11.8859C8.85562 11.8859 8.85561 11.8859 8.85561 11.8859C8.85561 11.8859 8.8556 11.8859 8.8556 11.8859C8.85559 11.8859 8.85559 11.8859 8.85559 11.8859C8.85558 11.8859 8.85558 11.8859 8.85558 11.8859C8.85557 11.8859 8.85557 11.8859 8.85557 11.8859C8.85556 11.8859 8.85556 11.8859 8.85555 11.8859C8.85555 11.8859 8.85555 11.8859 8.85554 11.8859C8.85554 11.8859 8.85554 11.8859 8.85553 11.8859C8.85553 11.8859 8.85553 11.8859 8.85552 11.8859C8.85552 11.8859 8.85552 11.8859 8.85551 11.8859C8.85551 11.8859 8.8555 11.8859 8.8555 11.8859C8.8555 11.8859 8.85549 11.8859 8.85549 11.8859C8.85549 11.8859 8.85548 11.8859 8.85548 11.8859C8.85548 11.8859 8.85547 11.8859 8.85547 11.8859C8.85546 11.8859 8.85546 11.8859 8.85546 11.8859C8.85545 11.8859 8.85545 11.8859 8.85545 11.8859C8.85544 11.8859 8.85544 11.8859 8.85544 11.8859C8.85543 11.8859 8.85543 11.8859 8.85543 11.8859C8.85542 11.8859 8.85542 11.8859 8.85541 11.8859C8.85541 11.8859 8.85541 11.8859 8.8554 11.8859C8.8554 11.8859 8.8554 11.8859 8.85539 11.8859C8.85539 11.8859 8.85539 11.8859 8.85538 11.8859C8.85538 11.8859 8.85538 11.8859 8.85537 11.8859C8.85537 11.8859 8.85536 11.8859 8.85536 11.8859C8.85536 11.8859 8.85535 11.8859 8.85535 11.8859C8.85535 11.8859 8.85534 11.8859 8.85534 11.8859C8.85534 11.8859 8.85533 11.8859 8.85533 11.8859C8.85532 11.8859 8.85532 11.8859 8.85532 11.8859C8.85531 11.8859 8.85531 11.8859 8.85531 11.8859C8.8553 11.8859 8.8553 11.8859 8.8553 11.8859C8.85529 11.8859 8.85529 11.8859 8.85529 11.8859C8.85528 11.8859 8.85528 11.8859 8.85528 11.8859C8.85527 11.8859 8.85527 11.8859 8.85526 11.8859C8.85526 11.8859 8.85526 11.8859 8.85525 11.8859C8.85525 11.8859 8.85525 11.8859 8.85524 11.8859C8.85524 11.8859 8.85524 11.8859 8.85523 11.8859C8.85523 11.8859 8.85522 11.8859 8.85522 11.8859C8.85522 11.8859 8.85521 11.8859 8.85521 11.8859C8.85521 11.8859 8.8552 11.8859 8.8552 11.8859C8.8552 11.8859 8.85519 11.8859 8.85519 11.8859C8.85519 11.8859 8.85518 11.8859 8.85518 11.8859C8.85517 11.8859 8.85517 11.8859 8.85517 11.8859C8.85516 11.8859 8.85516 11.8859 8.85516 11.8859C8.85515 11.8859 8.85515 11.8859 8.85515 11.8859C8.85514 11.8859 8.85514 11.8859 8.85513 11.8859C8.85513 11.8859 8.85513 11.8859 8.85512 11.8859C8.85512 11.8859 8.85512 11.8859 8.85511 11.8859C8.85511 11.8859 8.85511 11.8859 8.8551 11.8859C8.8551 11.8859 8.8551 11.8859 8.85509 11.8859C8.85509 11.8859 8.85508 11.8859 8.85508 11.8859C8.85508 11.8859 8.85507 11.8859 8.85507 11.8859C8.85507 11.8859 8.85506 11.8859 8.85506 11.8859C8.85506 11.8859 8.85505 11.8859 8.85505 11.8859C8.85505 11.8859 8.85504 11.8859 8.85504 11.8859C8.85503 11.8859 8.85503 11.8859 8.85503 11.8859C8.85502 11.8859 8.85502 11.8859 8.85502 11.8859C8.85501 11.8859 8.85501 11.8859 8.85501 11.8859C8.855 11.8859 8.855 11.8859 8.85499 11.8859C8.85499 11.8859 8.85499 11.8859 8.85498 11.8859C8.85498 11.8859 8.85498 11.8859 8.85497 11.8859C8.85497 11.8859 8.85497 11.8859 8.85496 11.8859C8.85496 11.8859 8.85496 11.8859 8.85495 11.8859C8.85495 11.8859 8.85495 11.8859 8.85494 11.8859C8.85494 11.8859 8.85493 11.8859 8.85493 11.8859C8.85493 11.8859 8.85492 11.8859 8.85492 11.8859C8.85492 11.8859 8.85491 11.8859 8.85491 11.8859C8.85491 11.8859 8.8549 11.8859 8.8549 11.8859C8.85489 11.8859 8.85489 11.8859 8.85489 11.8859C8.85488 11.8859 8.85488 11.8859 8.85488 11.8859C8.85487 11.8859 8.85487 11.8859 8.85487 11.8859C8.85486 11.8859 8.85486 11.8859 8.85486 11.8859C8.85485 11.8859 8.85485 11.8859 8.85485 11.8859C8.85484 11.8859 8.85484 11.8859 8.85483 11.8859C8.85483 11.8859 8.85483 11.8859 8.85482 11.8859C8.85482 11.8859 8.85482 11.8859 8.85481 11.8859C8.85481 11.8859 8.8548 11.8859 8.8548 11.8859C8.8548 11.8859 8.85479 11.8859 8.85479 11.8859C8.85479 11.8859 8.85478 11.8859 8.85478 11.8859C8.85478 11.8859 8.85477 11.8859 8.85477 11.8859C8.85477 11.8859 8.85476 11.8859 8.85476 11.8859C8.85476 11.8859 8.85475 11.8859 8.85475 11.8859C8.85474 11.8859 8.85474 11.8859 8.85474 11.8859C8.85473 11.8859 8.85473 11.8859 8.85473 11.8859C8.85472 11.8859 8.85472 11.8859 8.85472 11.8859C8.85471 11.8859 8.85471 11.8859 8.8547 11.8859C8.8547 11.8859 8.8547 11.8859 8.85469 11.8859C8.85469 11.8859 8.85469 11.8859 8.85468 11.8859C8.85468 11.8859 8.85468 11.8859 8.85467 11.8859C8.85467 11.8859 8.85467 11.8859 8.85466 11.8859C8.85466 11.8859 8.85466 11.8859 8.85465 11.8859C8.85465 11.8859 8.85464 11.8859 8.85464 11.8859C8.85464 11.8859 8.85463 11.8859 8.85463 11.8859C8.85463 11.8859 8.85462 11.8859 8.85462 11.8859C8.85462 11.8859 8.85461 11.8859 8.85461 11.8859C8.8546 11.8859 8.8546 11.8859 8.8546 11.8859C8.85459 11.8859 8.85459 11.8859 8.85459 11.8859C8.85458 11.8859 8.85458 11.8859 8.85458 11.8859C8.85457 11.8859 8.85457 11.8859 8.85457 11.8859C8.85456 11.8859 8.85456 11.8859 8.85456 11.8859C8.85455 11.8859 8.85455 11.8859 8.85454 11.8859C8.85454 11.8859 8.85454 11.8859 8.85453 11.8859C8.85453 11.8859 8.85453 11.8859 8.85452 11.8859C8.85452 11.8859 8.85452 11.8859 8.85451 11.8859C8.85451 11.8859 8.85451 11.8859 8.8545 11.8859C8.8545 11.8859 8.85449 11.8859 8.85449 11.8859C8.85449 11.8859 8.85448 11.8859 8.85448 11.8859C8.85448 11.8859 8.85447 11.8859 8.85447 11.8859C8.85447 11.8859 8.85446 11.8859 8.85446 11.8859C8.85445 11.8859 8.85445 11.8859 8.85445 11.8859C8.85444 11.8859 8.85444 11.8859 8.85444 11.8859C8.85443 11.8859 8.85443 11.8859 8.85443 11.8859C8.85442 11.8859 8.85442 11.8859 8.85442 11.8859C8.85441 11.8859 8.85441 11.8859 8.85441 11.8859C8.8544 11.8859 8.8544 11.8859 8.85439 11.8859C8.85439 11.8859 8.85439 11.8859 8.85438 11.8859C8.85438 11.8859 8.85438 11.8859 8.85437 11.8859C8.85437 11.8859 8.85437 11.8859 8.85436 11.8859C8.85436 11.8859 8.85436 11.8859 8.85435 11.8859C8.85435 11.8859 8.85435 11.8859 8.85434 11.8859C8.85434 11.8859 8.85433 11.8859 8.85433 11.8859C8.85433 11.8859 8.85432 11.8859 8.85432 11.8859C8.85432 11.8859 8.85431 11.8859 8.85431 11.8859C8.85431 11.8859 8.8543 11.8859 8.8543 11.8859C8.8543 11.8859 8.85429 11.8859 8.85429 11.8859C8.85429 11.8859 8.85428 11.8859 8.85428 11.8859C8.85427 11.8859 8.85427 11.8859 8.85427 11.8859C8.85426 11.8859 8.85426 11.8859 8.85426 11.8859C8.85425 11.8859 8.85425 11.8859 8.85425 11.8859C8.85424 11.8859 8.85424 11.8859 8.85424 11.8859C8.85423 11.8859 8.85423 11.8859 8.85423 11.8859C8.85422 11.8859 8.85422 11.8859 8.85421 11.8859C8.85421 11.8859 8.85421 11.8859 8.8542 11.8859C8.8542 11.8859 8.8542 11.8859 8.85419 11.8859C8.85419 11.8859 8.85419 11.8859 8.85418 11.8859C8.85418 11.8859 8.85418 11.8859 8.85417 11.8859C8.85417 11.8859 8.85417 11.8859 8.85416 11.8859C8.85416 11.8859 8.85415 11.8859 8.85415 11.8859C8.85415 11.8859 8.85414 11.8859 8.85414 11.8859C8.85414 11.8859 8.85413 11.8859 8.85413 11.8859C8.85413 11.8859 8.85412 11.8859 8.85412 11.8859C8.85412 11.8859 8.85411 11.8859 8.85411 11.8859C8.8541 11.8859 8.8541 11.8859 8.8541 11.8859C8.85409 11.8859 8.85409 11.8859 8.85409 11.8859C8.85408 11.8859 8.85408 11.8859 8.85408 11.8859C8.85407 11.8859 8.85407 11.8859 8.85407 11.8859C8.85406 11.8859 8.85406 11.8859 8.85406 11.8859C8.85405 11.8859 8.85405 11.8859 8.85404 11.8859C8.85404 11.8859 8.85404 11.8859 8.85403 11.8859C8.85403 11.8859 8.85403 11.8859 8.85402 11.8859C8.85402 11.8859 8.85402 11.8859 8.85401 11.8859C8.85401 11.8859 8.85401 11.8859 8.854 11.8859C8.854 11.8859 8.854 11.8859 8.85399 11.8859C8.85399 11.8859 8.85399 11.8859 8.85398 11.8859C8.85398 11.8859 8.85398 11.8859 8.85397 11.8859C8.85397 11.8859 8.85396 11.8859 8.85396 11.8859C8.85396 11.8859 8.85395 11.8859 8.85395 11.8859C8.85395 11.8859 8.85394 11.8859 8.85394 11.8859C8.85394 11.8859 8.85393 11.8859 8.85393 11.8859C8.85393 11.8859 8.85392 11.8859 8.85392 11.8859C8.85392 11.8859 8.85391 11.8859 8.85391 11.8859C8.8539 11.8859 8.8539 11.8859 8.8539 11.8859C8.85389 11.8859 8.85389 11.8859 8.85389 11.8859C8.85388 11.8859 8.85388 11.8859 8.85388 11.8859C8.85387 11.8859 8.85387 11.8859 8.85387 11.8859C8.85386 11.8859 8.85386 11.8859 8.85386 11.8859C8.85385 11.8859 8.85385 11.8859 8.85385 11.8859C8.85384 11.8859 8.85384 11.8859 8.85384 11.8859C8.85383 11.8859 8.85383 11.8859 8.85382 11.8859C8.85382 11.8859 8.85382 11.8859 8.85381 11.8859C8.85381 11.8859 8.85381 11.8859 8.8538 11.8859C8.8538 11.8859 8.8538 11.8859 8.85379 11.8859C8.85379 11.8859 8.85379 11.8859 8.85378 11.8859C8.85378 11.8859 8.85378 11.8859 8.85377 11.8859C8.85377 11.8859 8.85377 11.8859 8.85376 11.8859C8.85376 11.8859 8.85375 11.8859 8.85375 11.8859C8.85375 11.8859 8.85374 11.8859 8.85374 11.8859C8.85374 11.8859 8.85373 11.8859 8.85373 11.8859C8.85373 11.8859 8.85372 11.8859 8.85372 11.8859C8.85372 11.8859 8.85371 11.8859 8.85371 11.8859C8.85371 11.8859 8.8537 11.8859 8.8537 11.8859C8.8537 11.8859 8.85369 11.8859 8.85369 11.8859C8.85369 11.8859 8.85368 11.8859 8.85368 11.8859C8.85367 11.8859 8.85367 11.8859 8.85367 11.8859C8.85367 11.8859 8.85366 11.8859 8.85366 11.8859C8.85365 11.8859 8.85365 11.8859 8.85365 11.8859C8.85364 11.8859 8.85364 11.8859 8.85364 11.8859C8.85363 11.8859 8.85363 11.8859 8.85363 11.8859C8.85362 11.8859 8.85362 11.8859 8.85362 11.8859C8.85361 11.8859 8.85361 11.8859 8.85361 11.8859C8.8536 11.8859 8.8536 11.8859 8.8536 11.8859C8.85359 11.8859 8.85359 11.8859 8.85359 11.8859C8.85358 11.8859 8.85358 11.8859 8.85357 11.8859C8.85357 11.8859 8.85357 11.8859 8.85357 11.8859C8.85356 11.8859 8.85356 11.8859 8.85355 11.8859C8.85355 11.8859 8.85355 11.8859 8.85354 11.8859C8.85354 11.8859 8.85354 11.8859 8.85353 11.8859C8.85353 11.8859 8.85353 11.8859 8.85352 11.8859C8.85352 11.8859 8.85352 11.8859 8.85351 11.8859C8.85351 11.8859 8.85351 11.8859 8.8535 11.8859C8.8535 11.8859 8.8535 11.8859 8.85349 11.8859C8.85349 11.8859 8.85349 11.8859 8.85348 11.8859C8.85348 11.8859 8.85348 11.8859 8.85347 11.8859C8.85347 11.8859 8.85347 11.8859 8.85346 11.8859C8.85346 11.8859 8.85346 11.8859 8.85345 11.8859C8.85345 11.8859 8.85345 11.8859 8.85344 11.8859C8.85344 11.8859 8.85343 11.8859 8.85343 11.8859C8.85343 11.8859 8.85342 11.8859 8.85342 11.8859C8.85342 11.8859 8.85341 11.8859 8.85341 11.8859C8.85341 11.8859 8.8534 11.8859 8.8534 11.8859C8.8534 11.8859 8.85339 11.8859 8.85339 11.8859C8.85339 11.8859 8.85338 11.8859 8.85338 11.8859C8.85338 11.8859 8.85337 11.8859 8.85337 11.8859C8.85337 11.8859 8.85336 11.8859 8.85336 11.8859C8.85336 11.8859 8.85335 11.8859 8.85335 11.8859C8.85335 11.8859 8.85334 11.8859 8.85334 11.8859C8.85334 11.8859 8.85333 11.8859 8.85333 11.8859C8.85333 11.8859 8.85332 11.8859 8.85332 11.8859C8.85332 11.8859 8.85331 11.8859 8.85331 11.8859C8.8533 11.8859 8.8533 11.8859 8.8533 11.8859C8.8533 11.8859 8.85329 11.8859 8.85329 11.8859C8.85328 11.8859 8.85328 11.8859 8.85328 11.8859C8.85327 11.8859 8.85327 11.8859 8.85327 11.8859C8.85326 11.8859 8.85326 11.8859 8.85326 11.8859C8.85325 11.8859 8.85325 11.8859 8.85325 11.8859C8.85324 11.8859 8.85324 11.8859 8.85324 11.8859C8.85323 11.8859 8.85323 11.8859 8.85323 11.8859C8.85322 11.8859 8.85322 11.8859 8.85322 11.8859C8.85321 11.8859 8.85321 11.8859 8.85321 11.8859C8.8532 11.8859 8.8532 11.8859 8.8532 11.8859C8.85319 11.8859 8.85319 11.8859 8.85319 11.8859C8.85318 11.8859 8.85318 11.8859 8.85318 11.8859C8.85317 11.8859 8.85317 11.8859 8.85317 11.8859C8.85316 11.8859 8.85316 11.8859 8.85316 11.8859C8.85315 11.8859 8.85315 11.8859 8.85315 11.8859C8.85314 11.8859 8.85314 11.8859 8.85314 11.8859C8.85313 11.8859 8.85313 11.8859 8.85313 11.8859C8.85312 11.8859 8.85312 11.8859 8.85312 11.8859C8.85311 11.8859 8.85311 11.8859 8.85311 11.8859C8.8531 11.8859 8.8531 11.8859 8.8531 11.8859C8.85309 11.8859 8.85309 11.8859 8.85309 11.8859C8.85308 11.8859 8.85308 11.8859 8.85308 11.8859C8.85307 11.8859 8.85307 11.8859 8.85307 11.8859C8.85306 11.8859 8.85306 11.8859 8.85306 11.8859C8.85305 11.8859 8.85305 11.8859 8.85305 11.8859C8.85304 11.8859 8.85304 11.8859 8.85304 11.8859C8.85303 11.8859 8.85303 11.8859 8.85303 11.8859C8.85302 11.8859 8.85302 11.8859 8.85302 11.8859C8.85301 11.8859 8.85301 11.8859 8.85301 11.8859C8.853 11.8859 8.853 11.8859 8.853 11.8859C8.85299 11.8859 8.85299 11.8859 8.85299 11.8859C8.85298 11.8859 8.85298 11.8859 8.85298 11.8859C8.85297 11.8859 8.85297 11.8859 8.85297 11.8859C8.85296 11.8859 8.85296 11.8859 8.85296 11.8859C8.85295 11.8859 8.85295 11.8859 8.85295 11.8859C8.85294 11.8859 8.85294 11.8859 8.85294 11.8859C8.85293 11.8859 8.85293 11.8859 8.85293 11.8859C8.85292 11.8859 8.85292 11.8859 8.85292 11.8859C8.85291 11.8859 8.85291 11.8859 8.85291 11.8859C8.8529 11.8859 8.8529 11.8859 8.8529 11.8859C8.85289 11.8859 8.85289 11.8859 8.85289 11.8859C8.85288 11.8859 8.85288 11.8859 8.85288 11.8859C8.85287 11.8859 8.85287 11.8859 8.85287 11.8859C8.85287 11.8859 8.85286 11.8859 8.85286 11.8859C8.85285 11.8859 8.85285 11.8859 8.85285 11.8859C8.85285 11.8859 8.85284 11.8859 8.85284 11.8859C8.85284 11.8859 8.85283 11.8859 8.85283 11.8859C8.85283 11.8859 8.85282 11.8859 8.85282 11.8859C8.85282 11.8859 8.85281 11.8859 8.85281 11.8859C8.85281 11.8859 8.8528 11.8859 8.8528 11.8859C8.8528 11.8859 8.85279 11.8859 8.85279 11.8859C8.85279 11.8859 8.85278 11.8859 8.85278 11.8859C8.85278 11.8859 8.85277 11.8859 8.85277 11.8859C8.85277 11.8859 8.85276 11.8859 8.85276 11.8859C8.85276 11.8859 8.85275 11.8859 8.85275 11.8859C8.85275 11.8859 8.85274 11.8859 8.85274 11.8859C8.85274 11.8859 8.85273 11.8859 8.85273 11.8859C8.85273 11.8859 8.85273 11.8859 8.85272 11.8859C8.85272 11.8859 8.85271 11.8859 8.85271 11.8859C8.85271 11.8859 8.85271 11.8859 8.8527 11.8859C8.8527 11.8859 8.8527 11.8859 8.85269 11.8859C8.85269 11.8859 8.85269 11.8859 8.85268 11.8859C8.85268 11.8859 8.85268 11.8859 8.85267 11.8859C8.85267 11.8859 8.85267 11.8859 8.85266 11.8859C8.85266 11.8859 8.85266 11.8859 8.85265 11.8859C8.85265 11.8859 8.85265 11.8859 8.85264 11.8859C8.85264 11.8859 8.85264 11.8859 8.85263 11.8859C8.85263 11.8859 8.85263 11.8859 8.85262 11.8859C8.85262 11.8859 8.85262 11.8859 8.85262 11.8859C8.85261 11.8859 8.85261 11.8859 8.85261 11.8859C8.8526 11.8859 8.8526 11.8859 8.8526 11.8859C8.85259 11.8859 8.85259 11.8859 8.85259 11.8859C8.85258 11.8859 8.85258 11.8859 8.85258 11.8859C8.85257 11.8859 8.85257 11.8859 8.85257 11.8859V21.8859ZM8.85787 21.8859C10.0085 21.8859 11.6883 21.526 13.0057 20.1372L5.75064 13.2551C6.33562 12.6384 6.96939 12.3104 7.44155 12.1382C7.93145 11.9594 8.41228 11.8859 8.85787 11.8859V21.8859ZM13.0079 20.1349L20.2595 12.4807L13.0001 5.60312L5.74849 13.2573L13.0079 20.1349ZM20.2657 12.4742C20.4814 12.2457 20.7221 11.951 20.9454 11.5846L12.4057 6.38127C12.6045 6.05508 12.8141 5.8001 12.9939 5.60964L20.2657 12.4742ZM20.3318 12.3934C21.9029 10.7092 23 8.4736 23 5.90774H13C13 5.73382 13.0389 5.59925 13.0708 5.5253C13.0998 5.45792 13.1053 5.48017 13.0193 5.57243L20.3318 12.3934ZM23 5.90774C23 2.04526 20.6114 -0.80221 18.1042 -2.44777C15.5513 -4.12332 12.3176 -5 8.99877 -5V5C10.6433 5 11.9102 5.44844 12.6171 5.91239C13.3697 6.40632 13 6.51272 13 5.90774H23ZM8.99877 -5C5.68046 -5 2.44724 -4.12316 -0.105252 -2.44746C-2.61216 -0.801687 -5 2.04578 -5 5.90774H5C5 6.51221 4.63069 6.4058 5.38275 5.91208C6.08922 5.44828 7.35539 5 8.99877 5V-5ZM-5 5.90774C-5 8.47476 -3.90173 10.7106 -2.33071 12.3946L4.98125 5.5729C4.89485 5.48029 4.9002 5.45776 4.92917 5.52499C4.96097 5.5988 5 5.73348 5 5.90774H-5ZM-2.89259 11.6688C-2.71173 11.9529 -2.51531 12.2021 -2.31614 12.4189L5.04755 5.65312C5.21568 5.83611 5.38514 6.05048 5.54313 6.29866L-2.89259 11.6688ZM8.99918 5.80459C10.306 5.80459 11.2667 6.16285 11.7517 6.48116C12.2823 6.82943 11.7752 6.73474 11.7752 5.90801H21.7752C21.7752 2.26723 19.524 -0.379175 17.2386 -1.8791C14.9075 -3.40898 11.9802 -4.19541 8.99918 -4.19541V5.80459ZM11.7752 5.90801C11.7752 5.65258 11.8328 5.44104 11.896 5.29755C11.9562 5.16111 12.0051 5.12132 11.9699 5.15806L19.193 12.0737C20.6921 10.508 21.7752 8.38219 21.7752 5.90801H11.7752ZM11.9982 5.12868C11.726 5.40843 11.4746 5.72778 11.2572 6.08675L19.8117 11.2657C19.6197 11.5828 19.3993 11.862 19.1646 12.1031L11.9982 5.12868ZM11.905 5.2372L5.23902 12.2723L12.498 19.1504L19.1639 12.1152L11.905 5.2372ZM12.5662 12.3458L6.16815 5.3163L-1.22727 12.0474L5.17078 19.0769L12.5662 12.3458ZM6.74025 6.08019C6.5474 5.76367 6.30938 5.44654 6.01893 5.14529L-1.18016 12.086C-1.42977 11.8271 -1.6343 11.5544 -1.79938 11.2835L6.74025 6.08019ZM6.03094 5.15779C5.99558 5.12085 6.04452 5.16066 6.10475 5.29726C6.16811 5.44098 6.22562 5.65257 6.22562 5.90774H-3.77438C-3.77438 8.38236 -2.69115 10.5079 -1.19217 12.0735L6.03094 5.15779ZM6.22562 5.90774C6.22562 6.73417 5.71877 6.8289 6.24902 6.4808C6.73364 6.16266 7.69353 5.80459 8.99918 5.80459V-4.19541C6.01864 -4.19541 3.09175 -3.4088 0.761135 -1.87881C-1.52385 -0.378773 -3.77438 2.26753 -3.77438 5.90774H6.22562Z" fill="white" mask="url(#path-1-inside-1)"/>
<mask id="path-3-inside-2" fill="white">
<path d="M9.00031 8.10461C10.8451 8.10461 12.346 7.11932 12.346 5.90828C12.346 4.69724 10.8451 3.71194 9.00031 3.71194C7.15555 3.71194 5.65466 4.69724 5.65466 5.90828C5.65466 7.11932 7.15555 8.10461 9.00031 8.10461ZM9.00031 4.51627C10.1696 4.51627 11.1207 5.14069 11.1207 5.90828C11.1207 6.67587 10.1696 7.30029 9.00031 7.30029C7.83105 7.30029 6.87988 6.67587 6.87988 5.90828C6.87947 5.14069 7.83105 4.51627 9.00031 4.51627Z"/>
</mask>
<path d="M9.00031 8.10461C10.8451 8.10461 12.346 7.11932 12.346 5.90828C12.346 4.69724 10.8451 3.71194 9.00031 3.71194C7.15555 3.71194 5.65466 4.69724 5.65466 5.90828C5.65466 7.11932 7.15555 8.10461 9.00031 8.10461ZM9.00031 4.51627C10.1696 4.51627 11.1207 5.14069 11.1207 5.90828C11.1207 6.67587 10.1696 7.30029 9.00031 7.30029C7.83105 7.30029 6.87988 6.67587 6.87988 5.90828C6.87947 5.14069 7.83105 4.51627 9.00031 4.51627Z" fill="white"/>
<path d="M6.87988 5.90828H11.8799L11.8799 5.90562L6.87988 5.90828ZM9.00031 13.1046C10.7601 13.1046 12.58 12.644 14.1089 11.6404C15.5921 10.6667 17.346 8.74706 17.346 5.90828H7.34596C7.34596 4.28054 8.34936 3.45909 8.62098 3.28078C8.93818 3.07254 9.08528 3.10461 9.00031 3.10461V13.1046ZM17.346 5.90828C17.346 3.0695 15.5921 1.14988 14.1089 0.176165C12.58 -0.827481 10.7601 -1.28806 9.00031 -1.28806V8.71194C9.08528 8.71194 8.93818 8.74402 8.62098 8.53578C8.34936 8.35747 7.34596 7.53602 7.34596 5.90828H17.346ZM9.00031 -1.28806C7.24052 -1.28806 5.4206 -0.827481 3.89176 0.176164C2.40851 1.14988 0.654663 3.0695 0.654663 5.90828H10.6547C10.6547 7.53602 9.65126 8.35747 9.37964 8.53578C9.06243 8.74402 8.91534 8.71194 9.00031 8.71194V-1.28806ZM0.654663 5.90828C0.654663 8.74706 2.40851 10.6667 3.89176 11.6404C5.4206 12.644 7.24052 13.1046 9.00031 13.1046V3.10461C8.91534 3.10461 9.06244 3.07254 9.37964 3.28078C9.65126 3.45909 10.6547 4.28054 10.6547 5.90828H0.654663ZM9.00031 9.51627C8.74765 9.51627 8.29422 9.45818 7.75506 9.10423C7.26136 8.78013 6.12074 7.75755 6.12074 5.90828H16.1207C16.1207 3.29142 14.5045 1.57283 13.2429 0.74462C11.9359 -0.113438 10.4222 -0.483734 9.00031 -0.483734V9.51627ZM6.12074 5.90828C6.12074 4.05901 7.26136 3.03643 7.75506 2.71233C8.29422 2.35838 8.74765 2.30029 9.00031 2.30029V12.3003C10.4222 12.3003 11.9359 11.93 13.2429 11.0719C14.5045 10.2437 16.1207 8.52514 16.1207 5.90828H6.12074ZM9.00031 2.30029C9.25297 2.30029 9.7064 2.35838 10.2456 2.71233C10.7393 3.03642 11.8799 4.059 11.8799 5.90828H1.87988C1.87988 8.52515 3.49608 10.2437 4.75768 11.0719C6.06474 11.93 7.57839 12.3003 9.00031 12.3003V2.30029ZM11.8799 5.90562C11.8809 7.75706 10.7385 8.78055 10.2452 9.1044C9.70608 9.45824 9.25285 9.51627 9.00031 9.51627V-0.483734C7.57851 -0.483734 6.06486 -0.113498 4.75778 0.744451C3.4964 1.57241 1.87848 3.29191 1.87988 5.91094L11.8799 5.90562Z" fill="white" mask="url(#path-3-inside-2)"/>
<mask id="path-5-inside-3" fill="white">
<path d="M16.7373 19.1957H1.26324C0.924674 19.1957 0.650635 19.3758 0.650635 19.5978C0.650635 19.8198 0.924674 20 1.26324 20H16.7373C17.0754 20 17.3499 19.8198 17.3499 19.5978C17.3499 19.3758 17.0754 19.1957 16.7373 19.1957Z"/>
</mask>
<path d="M16.7373 19.1957H1.26324C0.924674 19.1957 0.650635 19.3758 0.650635 19.5978C0.650635 19.8198 0.924674 20 1.26324 20H16.7373C17.0754 20 17.3499 19.8198 17.3499 19.5978C17.3499 19.3758 17.0754 19.1957 16.7373 19.1957Z" fill="white"/>
<path d="M16.7373 14.1957H1.26324V24.1957H16.7373V14.1957ZM1.26324 14.1957C0.259721 14.1957 -0.878226 14.4535 -1.91485 15.1343C-2.90919 15.7873 -4.34937 17.2598 -4.34937 19.5978H5.65063C5.65063 21.7139 4.34748 22.9853 3.5748 23.4927C2.75984 24.028 1.92819 24.1957 1.26324 24.1957V14.1957ZM-4.34937 19.5978C-4.34937 21.9359 -2.90919 23.4083 -1.91485 24.0614C-0.878226 24.7422 0.259721 25 1.26324 25V15C1.92819 15 2.75984 15.1677 3.5748 15.7029C4.34748 16.2104 5.65063 17.4818 5.65063 19.5978H-4.34937ZM1.26324 25H16.7373V15H1.26324V25ZM16.7373 25C17.7415 25 18.8788 24.7418 19.9143 24.062C20.9065 23.4106 22.3499 21.9386 22.3499 19.5978H12.3499C12.3499 17.479 13.656 16.2081 14.4264 15.7024C15.2402 15.1681 16.0712 15 16.7373 15V25ZM22.3499 19.5978C22.3499 17.257 20.9065 15.7851 19.9143 15.1337C18.8788 14.4539 17.7415 14.1957 16.7373 14.1957V24.1957C16.0712 24.1957 15.2402 24.0276 14.4264 23.4933C13.656 22.9876 12.3499 21.7166 12.3499 19.5978H22.3499Z" fill="white" mask="url(#path-5-inside-3)"/>
</svg>
