<svg width="40" height="45" viewBox="0 0 40 45" fill="none" xmlns="http://www.w3.org/2000/svg">
<path d="M2.22222 0C1.00148 0 0 1.248 0 2.76923V24.9231C0 26.4443 1.00148 27.6923 2.22222 27.6923H8.88889H10.7075C10.9164 27.2098 11.1551 26.7515 11.4095 26.3077H8.88889H2.22222C1.60185 26.3077 1.11111 25.6962 1.11111 24.9231V2.76923C1.11111 1.99615 1.60185 1.38462 2.22222 1.38462H37.7778C38.3982 1.38462 38.8889 1.99615 38.8889 2.76923V24.9231C38.8889 25.6962 38.3982 26.3077 37.7778 26.3077H32.2222H29.5182L29.7211 27.6923H32.2222H37.7778C38.9985 27.6923 40 26.4443 40 24.9231V2.76923C40 1.248 38.9985 0 37.7778 0H2.22222ZM3.33333 3.46154C3.18599 3.46154 3.04468 3.53448 2.9405 3.66431C2.83631 3.79414 2.77778 3.97023 2.77778 4.15385C2.77778 4.33746 2.83631 4.51355 2.9405 4.64338C3.04468 4.77322 3.18599 4.84615 3.33333 4.84615C3.48068 4.84615 3.62198 4.77322 3.72617 4.64338C3.83036 4.51355 3.88889 4.33746 3.88889 4.15385C3.88889 3.97023 3.83036 3.79414 3.72617 3.66431C3.62198 3.53448 3.48068 3.46154 3.33333 3.46154ZM5.55556 3.46154C5.40821 3.46154 5.26691 3.53448 5.16272 3.66431C5.05853 3.79414 5 3.97023 5 4.15385C5 4.33746 5.05853 4.51355 5.16272 4.64338C5.26691 4.77322 5.40821 4.84615 5.55556 4.84615C5.7029 4.84615 5.84421 4.77322 5.94839 4.64338C6.05258 4.51355 6.11111 4.33746 6.11111 4.15385C6.11111 3.97023 6.05258 3.79414 5.94839 3.66431C5.84421 3.53448 5.7029 3.46154 5.55556 3.46154ZM7.77778 3.46154C7.63044 3.46154 7.48913 3.53448 7.38494 3.66431C7.28075 3.79414 7.22222 3.97023 7.22222 4.15385C7.22222 4.33746 7.28075 4.51355 7.38494 4.64338C7.48913 4.77322 7.63044 4.84615 7.77778 4.84615C7.92512 4.84615 8.06643 4.77322 8.17062 4.64338C8.2748 4.51355 8.33333 4.33746 8.33333 4.15385C8.33333 3.97023 8.2748 3.79414 8.17062 3.66431C8.06643 3.53448 7.92512 3.46154 7.77778 3.46154ZM10 3.46154C9.85266 3.46154 9.71135 3.53448 9.60716 3.66431C9.50298 3.79414 9.44444 3.97023 9.44444 4.15385C9.44444 4.33746 9.50298 4.51355 9.60716 4.64338C9.71135 4.77322 9.85266 4.84615 10 4.84615C10.1473 4.84615 10.2887 4.77322 10.3928 4.64338C10.497 4.51355 10.5556 4.33746 10.5556 4.15385C10.5556 3.97023 10.497 3.79414 10.3928 3.66431C10.2887 3.53448 10.1473 3.46154 10 3.46154ZM12.2222 3.46154C12.0749 3.46154 11.9336 3.53448 11.8294 3.66431C11.7252 3.79414 11.6667 3.97023 11.6667 4.15385C11.6667 4.33746 11.7252 4.51355 11.8294 4.64338C11.9336 4.77322 12.0749 4.84615 12.2222 4.84615C12.3696 4.84615 12.5109 4.77322 12.6151 4.64338C12.7192 4.51355 12.7778 4.33746 12.7778 4.15385C12.7778 3.97023 12.7192 3.79414 12.6151 3.66431C12.5109 3.53448 12.3696 3.46154 12.2222 3.46154ZM14.4444 3.46154C14.2971 3.46154 14.1558 3.53448 14.0516 3.66431C13.9474 3.79414 13.8889 3.97023 13.8889 4.15385C13.8889 4.33746 13.9474 4.51355 14.0516 4.64338C14.1558 4.77322 14.2971 4.84615 14.4444 4.84615C14.5918 4.84615 14.7331 4.77322 14.8373 4.64338C14.9415 4.51355 15 4.33746 15 4.15385C15 3.97023 14.9415 3.79414 14.8373 3.66431C14.7331 3.53448 14.5918 3.46154 14.4444 3.46154ZM16.6667 3.46154C16.5193 3.46154 16.378 3.53448 16.2738 3.66431C16.1696 3.79414 16.1111 3.97023 16.1111 4.15385C16.1111 4.33746 16.1696 4.51355 16.2738 4.64338C16.378 4.77322 16.5193 4.84615 16.6667 4.84615C16.814 4.84615 16.9553 4.77322 17.0595 4.64338C17.1637 4.51355 17.2222 4.33746 17.2222 4.15385C17.2222 3.97023 17.1637 3.79414 17.0595 3.66431C16.9553 3.53448 16.814 3.46154 16.6667 3.46154ZM18.8889 3.46154C18.7415 3.46154 18.6002 3.53448 18.4961 3.66431C18.3919 3.79414 18.3333 3.97023 18.3333 4.15385C18.3333 4.33746 18.3919 4.51355 18.4961 4.64338C18.6002 4.77322 18.7415 4.84615 18.8889 4.84615C19.0362 4.84615 19.1775 4.77322 19.2817 4.64338C19.3859 4.51355 19.4444 4.33746 19.4444 4.15385C19.4444 3.97023 19.3859 3.79414 19.2817 3.66431C19.1775 3.53448 19.0362 3.46154 18.8889 3.46154ZM21.1111 3.46154C20.9638 3.46154 20.8225 3.53448 20.7183 3.66431C20.6141 3.79414 20.5556 3.97023 20.5556 4.15385C20.5556 4.33746 20.6141 4.51355 20.7183 4.64338C20.8225 4.77322 20.9638 4.84615 21.1111 4.84615C21.2585 4.84615 21.3998 4.77322 21.504 4.64338C21.6081 4.51355 21.6667 4.33746 21.6667 4.15385C21.6667 3.97023 21.6081 3.79414 21.504 3.66431C21.3998 3.53448 21.2585 3.46154 21.1111 3.46154ZM23.3333 3.46154C23.186 3.46154 23.0447 3.53448 22.9405 3.66431C22.8363 3.79414 22.7778 3.97023 22.7778 4.15385C22.7778 4.33746 22.8363 4.51355 22.9405 4.64338C23.0447 4.77322 23.186 4.84615 23.3333 4.84615C23.4807 4.84615 23.622 4.77322 23.7262 4.64338C23.8304 4.51355 23.8889 4.33746 23.8889 4.15385C23.8889 3.97023 23.8304 3.79414 23.7262 3.66431C23.622 3.53448 23.4807 3.46154 23.3333 3.46154ZM25.5556 3.46154C25.4082 3.46154 25.2669 3.53448 25.1627 3.66431C25.0585 3.79414 25 3.97023 25 4.15385C25 4.33746 25.0585 4.51355 25.1627 4.64338C25.2669 4.77322 25.4082 4.84615 25.5556 4.84615C25.7029 4.84615 25.8442 4.77322 25.9484 4.64338C26.0526 4.51355 26.1111 4.33746 26.1111 4.15385C26.1111 3.97023 26.0526 3.79414 25.9484 3.66431C25.8442 3.53448 25.7029 3.46154 25.5556 3.46154ZM27.7778 3.46154C27.6304 3.46154 27.4891 3.53448 27.3849 3.66431C27.2808 3.79414 27.2222 3.97023 27.2222 4.15385C27.2222 4.33746 27.2808 4.51355 27.3849 4.64338C27.4891 4.77322 27.6304 4.84615 27.7778 4.84615C27.9251 4.84615 28.0664 4.77322 28.1706 4.64338C28.2748 4.51355 28.3333 4.33746 28.3333 4.15385C28.3333 3.97023 28.2748 3.79414 28.1706 3.66431C28.0664 3.53448 27.9251 3.46154 27.7778 3.46154ZM30 3.46154C29.8527 3.46154 29.7114 3.53448 29.6072 3.66431C29.503 3.79414 29.4444 3.97023 29.4444 4.15385C29.4444 4.33746 29.503 4.51355 29.6072 4.64338C29.7114 4.77322 29.8527 4.84615 30 4.84615C30.1473 4.84615 30.2887 4.77322 30.3928 4.64338C30.497 4.51355 30.5556 4.33746 30.5556 4.15385C30.5556 3.97023 30.497 3.79414 30.3928 3.66431C30.2887 3.53448 30.1473 3.46154 30 3.46154ZM32.2222 3.46154C32.0749 3.46154 31.9336 3.53448 31.8294 3.66431C31.7252 3.79414 31.6667 3.97023 31.6667 4.15385C31.6667 4.33746 31.7252 4.51355 31.8294 4.64338C31.9336 4.77322 32.0749 4.84615 32.2222 4.84615C32.3696 4.84615 32.5109 4.77322 32.6151 4.64338C32.7192 4.51355 32.7778 4.33746 32.7778 4.15385C32.7778 3.97023 32.7192 3.79414 32.6151 3.66431C32.5109 3.53448 32.3696 3.46154 32.2222 3.46154ZM34.4444 3.46154C34.2971 3.46154 34.1558 3.53448 34.0516 3.66431C33.9474 3.79414 33.8889 3.97023 33.8889 4.15385C33.8889 4.33746 33.9474 4.51355 34.0516 4.64338C34.1558 4.77322 34.2971 4.84615 34.4444 4.84615C34.5918 4.84615 34.7331 4.77322 34.8373 4.64338C34.9415 4.51355 35 4.33746 35 4.15385C35 3.97023 34.9415 3.79414 34.8373 3.66431C34.7331 3.53448 34.5918 3.46154 34.4444 3.46154ZM36.6667 3.46154C36.5193 3.46154 36.378 3.53448 36.2738 3.66431C36.1696 3.79414 36.1111 3.97023 36.1111 4.15385C36.1111 4.33746 36.1696 4.51355 36.2738 4.64338C36.378 4.77322 36.5193 4.84615 36.6667 4.84615C36.814 4.84615 36.9553 4.77322 37.0595 4.64338C37.1637 4.51355 37.2222 4.33746 37.2222 4.15385C37.2222 3.97023 37.1637 3.79414 37.0595 3.66431C36.9553 3.53448 36.814 3.46154 36.6667 3.46154ZM3.33333 6.23077C3.18599 6.23077 3.04468 6.30371 2.9405 6.43354C2.83631 6.56337 2.77778 6.73947 2.77778 6.92308C2.77778 7.10669 2.83631 7.28278 2.9405 7.41261C3.04468 7.54245 3.18599 7.61539 3.33333 7.61539C3.48068 7.61539 3.62198 7.54245 3.72617 7.41261C3.83036 7.28278 3.88889 7.10669 3.88889 6.92308C3.88889 6.73947 3.83036 6.56337 3.72617 6.43354C3.62198 6.30371 3.48068 6.23077 3.33333 6.23077ZM36.6667 6.23077C36.5193 6.23077 36.378 6.30371 36.2738 6.43354C36.1696 6.56337 36.1111 6.73947 36.1111 6.92308C36.1111 7.10669 36.1696 7.28278 36.2738 7.41261C36.378 7.54245 36.5193 7.61539 36.6667 7.61539C36.814 7.61539 36.9553 7.54245 37.0595 7.41261C37.1637 7.28278 37.2222 7.10669 37.2222 6.92308C37.2222 6.73947 37.1637 6.56337 37.0595 6.43354C36.9553 6.30371 36.814 6.23077 36.6667 6.23077ZM3.33333 9C3.18599 9 3.04468 9.07294 2.9405 9.20277C2.83631 9.3326 2.77778 9.5087 2.77778 9.69231C2.77778 9.87592 2.83631 10.052 2.9405 10.1818C3.04468 10.3117 3.18599 10.3846 3.33333 10.3846C3.48068 10.3846 3.62198 10.3117 3.72617 10.1818C3.83036 10.052 3.88889 9.87592 3.88889 9.69231C3.88889 9.5087 3.83036 9.3326 3.72617 9.20277C3.62198 9.07294 3.48068 9 3.33333 9ZM36.6667 9C36.5193 9 36.378 9.07294 36.2738 9.20277C36.1696 9.3326 36.1111 9.5087 36.1111 9.69231C36.1111 9.87592 36.1696 10.052 36.2738 10.1818C36.378 10.3117 36.5193 10.3846 36.6667 10.3846C36.814 10.3846 36.9553 10.3117 37.0595 10.1818C37.1637 10.052 37.2222 9.87592 37.2222 9.69231C37.2222 9.5087 37.1637 9.3326 37.0595 9.20277C36.9553 9.07294 36.814 9 36.6667 9ZM3.33333 11.7692C3.18599 11.7692 3.04468 11.8422 2.9405 11.972C2.83631 12.1018 2.77778 12.2779 2.77778 12.4615C2.77778 12.6452 2.83631 12.8212 2.9405 12.9511C3.04468 13.0809 3.18599 13.1538 3.33333 13.1538C3.48068 13.1538 3.62198 13.0809 3.72617 12.9511C3.83036 12.8212 3.88889 12.6452 3.88889 12.4615C3.88889 12.2779 3.83036 12.1018 3.72617 11.972C3.62198 11.8422 3.48068 11.7692 3.33333 11.7692ZM11.6667 11.7692C11.2246 11.7692 10.8007 11.988 10.4882 12.3775C10.1756 12.767 10 13.2953 10 13.8462C10 14.397 10.1756 14.9253 10.4882 15.3148C10.8007 15.7043 11.2246 15.9231 11.6667 15.9231C12.1087 15.9231 12.5326 15.7043 12.8452 15.3148C13.1577 14.9253 13.3333 14.397 13.3333 13.8462C13.3333 13.2953 13.1577 12.767 12.8452 12.3775C12.5326 11.988 12.1087 11.7692 11.6667 11.7692ZM17.2222 11.7692C16.7802 11.7692 16.3563 11.988 16.0437 12.3775C15.7312 12.767 15.5556 13.2953 15.5556 13.8462C15.5556 14.397 15.7312 14.9253 16.0437 15.3148C16.3563 15.7043 16.7802 15.9231 17.2222 15.9231C17.6643 15.9231 18.0882 15.7043 18.4007 15.3148C18.7133 14.9253 18.8889 14.397 18.8889 13.8462C18.8889 13.2953 18.7133 12.767 18.4007 12.3775C18.0882 11.988 17.6643 11.7692 17.2222 11.7692ZM22.7778 11.7692C22.3358 11.7692 21.9118 11.988 21.5993 12.3775C21.2867 12.767 21.1111 13.2953 21.1111 13.8462C21.1111 14.397 21.2867 14.9253 21.5993 15.3148C21.9118 15.7043 22.3358 15.9231 22.7778 15.9231C23.2198 15.9231 23.6437 15.7043 23.9563 15.3148C24.2689 14.9253 24.4444 14.397 24.4444 13.8462C24.4444 13.2953 24.2689 12.767 23.9563 12.3775C23.6437 11.988 23.2198 11.7692 22.7778 11.7692ZM28.3333 11.7692C27.8913 11.7692 27.4674 11.988 27.1548 12.3775C26.8423 12.767 26.6667 13.2953 26.6667 13.8462C26.6667 14.397 26.8423 14.9253 27.1548 15.3148C27.4674 15.7043 27.8913 15.9231 28.3333 15.9231C28.7754 15.9231 29.1993 15.7043 29.5118 15.3148C29.8244 14.9253 30 14.397 30 13.8462C30 13.2953 29.8244 12.767 29.5118 12.3775C29.1993 11.988 28.7754 11.7692 28.3333 11.7692ZM36.6667 11.7692C36.5193 11.7692 36.378 11.8422 36.2738 11.972C36.1696 12.1018 36.1111 12.2779 36.1111 12.4615C36.1111 12.6452 36.1696 12.8212 36.2738 12.9511C36.378 13.0809 36.5193 13.1538 36.6667 13.1538C36.814 13.1538 36.9553 13.0809 37.0595 12.9511C37.1637 12.8212 37.2222 12.6452 37.2222 12.4615C37.2222 12.2779 37.1637 12.1018 37.0595 11.972C36.9553 11.8422 36.814 11.7692 36.6667 11.7692ZM3.33333 14.5385C3.18599 14.5385 3.04468 14.6114 2.9405 14.7412C2.83631 14.8711 2.77778 15.0472 2.77778 15.2308C2.77778 15.4144 2.83631 15.5905 2.9405 15.7203C3.04468 15.8501 3.18599 15.9231 3.33333 15.9231C3.48068 15.9231 3.62198 15.8501 3.72617 15.7203C3.83036 15.5905 3.88889 15.4144 3.88889 15.2308C3.88889 15.0472 3.83036 14.8711 3.72617 14.7412C3.62198 14.6114 3.48068 14.5385 3.33333 14.5385ZM36.6667 14.5385C36.5193 14.5385 36.378 14.6114 36.2738 14.7412C36.1696 14.8711 36.1111 15.0472 36.1111 15.2308C36.1111 15.4144 36.1696 15.5905 36.2738 15.7203C36.378 15.8501 36.5193 15.9231 36.6667 15.9231C36.814 15.9231 36.9553 15.8501 37.0595 15.7203C37.1637 15.5905 37.2222 15.4144 37.2222 15.2308C37.2222 15.0472 37.1637 14.8711 37.0595 14.7412C36.9553 14.6114 36.814 14.5385 36.6667 14.5385ZM3.33333 17.3077C3.18599 17.3077 3.04468 17.3806 2.9405 17.5105C2.83631 17.6403 2.77778 17.8164 2.77778 18C2.77778 18.1836 2.83631 18.3597 2.9405 18.4895C3.04468 18.6194 3.18599 18.6923 3.33333 18.6923C3.48068 18.6923 3.62198 18.6194 3.72617 18.4895C3.83036 18.3597 3.88889 18.1836 3.88889 18C3.88889 17.8164 3.83036 17.6403 3.72617 17.5105C3.62198 17.3806 3.48068 17.3077 3.33333 17.3077ZM36.6667 17.3077C36.5193 17.3077 36.378 17.3806 36.2738 17.5105C36.1696 17.6403 36.1111 17.8164 36.1111 18C36.1111 18.1836 36.1696 18.3597 36.2738 18.4895C36.378 18.6194 36.5193 18.6923 36.6667 18.6923C36.814 18.6923 36.9553 18.6194 37.0595 18.4895C37.1637 18.3597 37.2222 18.1836 37.2222 18C37.2222 17.8164 37.1637 17.6403 37.0595 17.5105C36.9553 17.3806 36.814 17.3077 36.6667 17.3077ZM3.33333 20.0769C3.18599 20.0769 3.04468 20.1499 2.9405 20.2797C2.83631 20.4095 2.77778 20.5856 2.77778 20.7692C2.77778 20.9528 2.83631 21.1289 2.9405 21.2588C3.04468 21.3886 3.18599 21.4615 3.33333 21.4615C3.48068 21.4615 3.62198 21.3886 3.72617 21.2588C3.83036 21.1289 3.88889 20.9528 3.88889 20.7692C3.88889 20.5856 3.83036 20.4095 3.72617 20.2797C3.62198 20.1499 3.48068 20.0769 3.33333 20.0769ZM36.6667 20.0769C36.5193 20.0769 36.378 20.1499 36.2738 20.2797C36.1696 20.4095 36.1111 20.5856 36.1111 20.7692C36.1111 20.9528 36.1696 21.1289 36.2738 21.2588C36.378 21.3886 36.5193 21.4615 36.6667 21.4615C36.814 21.4615 36.9553 21.3886 37.0595 21.2588C37.1637 21.1289 37.2222 20.9528 37.2222 20.7692C37.2222 20.5856 37.1637 20.4095 37.0595 20.2797C36.9553 20.1499 36.814 20.0769 36.6667 20.0769ZM3.33333 22.8462C3.18599 22.8462 3.04468 22.9191 2.9405 23.0489C2.83631 23.1788 2.77778 23.3549 2.77778 23.5385C2.77778 23.7221 2.83631 23.8982 2.9405 24.028C3.04468 24.1578 3.18599 24.2308 3.33333 24.2308C3.48068 24.2308 3.62198 24.1578 3.72617 24.028C3.83036 23.8982 3.88889 23.7221 3.88889 23.5385C3.88889 23.3549 3.83036 23.1788 3.72617 23.0489C3.62198 22.9191 3.48068 22.8462 3.33333 22.8462ZM5.55556 22.8462C5.40821 22.8462 5.26691 22.9191 5.16272 23.0489C5.05853 23.1788 5 23.3549 5 23.5385C5 23.7221 5.05853 23.8982 5.16272 24.028C5.26691 24.1578 5.40821 24.2308 5.55556 24.2308C5.7029 24.2308 5.84421 24.1578 5.94839 24.028C6.05258 23.8982 6.11111 23.7221 6.11111 23.5385C6.11111 23.3549 6.05258 23.1788 5.94839 23.0489C5.84421 22.9191 5.7029 22.8462 5.55556 22.8462ZM7.77778 22.8462C7.63044 22.8462 7.48913 22.9191 7.38494 23.0489C7.28075 23.1788 7.22222 23.3549 7.22222 23.5385C7.22222 23.7221 7.28075 23.8982 7.38494 24.028C7.48913 24.1578 7.63044 24.2308 7.77778 24.2308C7.92512 24.2308 8.06643 24.1578 8.17062 24.028C8.2748 23.8982 8.33333 23.7221 8.33333 23.5385C8.33333 23.3549 8.2748 23.1788 8.17062 23.0489C8.06643 22.9191 7.92512 22.8462 7.77778 22.8462ZM10 22.8462C9.85266 22.8462 9.71135 22.9191 9.60716 23.0489C9.50298 23.1788 9.44444 23.3549 9.44444 23.5385C9.44444 23.7221 9.50298 23.8982 9.60716 24.028C9.71135 24.1578 9.85266 24.2308 10 24.2308C10.1473 24.2308 10.2887 24.1578 10.3928 24.028C10.497 23.8982 10.5556 23.7221 10.5556 23.5385C10.5556 23.3549 10.497 23.1788 10.3928 23.0489C10.2887 22.9191 10.1473 22.8462 10 22.8462ZM12.2222 22.8462C12.0749 22.8462 11.9336 22.9191 11.8294 23.0489C11.7252 23.1788 11.6667 23.3549 11.6667 23.5385C11.6667 23.7221 11.7252 23.8982 11.8294 24.028C11.9336 24.1578 12.0749 24.2308 12.2222 24.2308C12.3696 24.2308 12.5109 24.1578 12.6151 24.028C12.7192 23.8982 12.7778 23.7221 12.7778 23.5385C12.7778 23.3549 12.7192 23.1788 12.6151 23.0489C12.5109 22.9191 12.3696 22.8462 12.2222 22.8462ZM20 22.8462C15.0989 22.8462 11.1111 27.8155 11.1111 33.9231C11.1111 40.0306 15.0989 45 20 45C24.9011 45 28.8889 40.0306 28.8889 33.9231H27.7778C27.7778 39.2677 24.2889 43.6154 20 43.6154C15.7111 43.6154 12.2222 39.2677 12.2222 33.9231C12.2222 28.5785 15.7111 24.2308 20 24.2308C22.1683 24.2308 24.229 25.3722 25.6912 27.3259L24.4444 28.8795L28.3333 29.7692L27.6194 24.9231L26.4779 26.3456C24.8084 24.1343 22.465 22.8462 20 22.8462ZM30 22.8462C29.8527 22.8462 29.7114 22.9191 29.6072 23.0489C29.503 23.1788 29.4444 23.3549 29.4444 23.5385C29.4444 23.7221 29.503 23.8982 29.6072 24.028C29.7114 24.1578 29.8527 24.2308 30 24.2308C30.1473 24.2308 30.2887 24.1578 30.3928 24.028C30.497 23.8982 30.5556 23.7221 30.5556 23.5385C30.5556 23.3549 30.497 23.1788 30.3928 23.0489C30.2887 22.9191 30.1473 22.8462 30 22.8462ZM32.2222 22.8462C32.0749 22.8462 31.9336 22.9191 31.8294 23.0489C31.7252 23.1788 31.6667 23.3549 31.6667 23.5385C31.6667 23.7221 31.7252 23.8982 31.8294 24.028C31.9336 24.1578 32.0749 24.2308 32.2222 24.2308C32.3696 24.2308 32.5109 24.1578 32.6151 24.028C32.7192 23.8982 32.7778 23.7221 32.7778 23.5385C32.7778 23.3549 32.7192 23.1788 32.6151 23.0489C32.5109 22.9191 32.3696 22.8462 32.2222 22.8462ZM34.4444 22.8462C34.2971 22.8462 34.1558 22.9191 34.0516 23.0489C33.9474 23.1788 33.8889 23.3549 33.8889 23.5385C33.8889 23.7221 33.9474 23.8982 34.0516 24.028C34.1558 24.1578 34.2971 24.2308 34.4444 24.2308C34.5918 24.2308 34.7331 24.1578 34.8373 24.028C34.9415 23.8982 35 23.7221 35 23.5385C35 23.3549 34.9415 23.1788 34.8373 23.0489C34.7331 22.9191 34.5918 22.8462 34.4444 22.8462ZM36.6667 22.8462C36.5193 22.8462 36.378 22.9191 36.2738 23.0489C36.1696 23.1788 36.1111 23.3549 36.1111 23.5385C36.1111 23.7221 36.1696 23.8982 36.2738 24.028C36.378 24.1578 36.5193 24.2308 36.6667 24.2308C36.814 24.2308 36.9553 24.1578 37.0595 24.028C37.1637 23.8982 37.2222 23.7221 37.2222 23.5385C37.2222 23.3549 37.1637 23.1788 37.0595 23.0489C36.9553 22.9191 36.814 22.8462 36.6667 22.8462Z" fill="black"/>
</svg>
