<svg width="35" height="35" viewBox="0 0 35 35" fill="none" xmlns="http://www.w3.org/2000/svg">
<path d="M30.8878 19.2062C30.9553 18.6594 31.0003 18.0906 31.0003 17.5C31.0003 16.9094 30.9553 16.3406 30.8653 15.7938L34.6679 12.9062C35.0054 12.6438 35.0954 12.1625 34.8929 11.7906L31.2928 5.73125C31.0678 5.3375 30.5953 5.20625 30.1903 5.3375L25.7127 7.0875C24.7677 6.3875 23.7776 5.81875 22.6751 5.38125L22.0001 0.74375C21.9326 0.30625 21.5501 0 21.1001 0H13.8999C13.4499 0 13.0899 0.30625 13.0224 0.74375L12.3474 5.38125C11.2449 5.81875 10.2323 6.40937 9.30981 7.0875L4.8322 5.3375C4.42719 5.18438 3.95468 5.3375 3.72968 5.73125L0.129593 11.7906C-0.0954127 12.1844 -0.00541028 12.6438 0.354598 12.9062L4.15719 15.7938C4.06719 16.3406 3.99968 16.9312 3.99968 17.5C3.99968 18.0688 4.04468 18.6594 4.13469 19.2062L0.332097 22.0938C-0.00541081 22.3563 -0.0954127 22.8375 0.107092 23.2094L3.70718 29.2688C3.93218 29.6625 4.40469 29.7938 4.8097 29.6625L9.28731 27.9125C10.2323 28.6125 11.2224 29.1812 12.3249 29.6187L12.9999 34.2562C13.0899 34.6937 13.4499 35 13.8999 35H21.1001C21.5501 35 21.9326 34.6937 21.9776 34.2562L22.6526 29.6187C23.7551 29.1812 24.7677 28.5906 25.6902 27.9125L30.1678 29.6625C30.5728 29.8156 31.0453 29.6625 31.2703 29.2688L34.8704 23.2094C35.0954 22.8156 35.0054 22.3563 34.6454 22.0938L30.8878 19.2062ZM17.5 24.0625C13.7874 24.0625 10.7498 21.1094 10.7498 17.5C10.7498 13.8906 13.7874 10.9375 17.5 10.9375C21.2126 10.9375 24.2502 13.8906 24.2502 17.5C24.2502 21.1094 21.2126 24.0625 17.5 24.0625Z" fill="white"/>
</svg>
